<mxfile host="app.diagrams.net" agent="Mozilla/5.0 (X11; Ubuntu; Linux x86_64; rv:129.0) Gecko/20100101 Firefox/129.0" version="26.0.7">
  <diagram id="C5RBs43oDa-KdzZeNtuy" name="Page-1">
    <mxGraphModel dx="1765" dy="1575" grid="0" gridSize="10" guides="1" tooltips="1" connect="1" arrows="1" fold="1" page="0" pageScale="1" pageWidth="827" pageHeight="1169" math="0" shadow="0">
      <root>
        <mxCell id="WIyWlLk6GJQsqaUBKTNV-0" />
        <mxCell id="WIyWlLk6GJQsqaUBKTNV-1" parent="WIyWlLk6GJQsqaUBKTNV-0" />
        <mxCell id="5psIUY1SIHQBk0JDd5z6-29" value="" style="rounded=1;whiteSpace=wrap;html=1;fillColor=light-dark(#ffffff, #F0F6FF);strokeColor=light-dark(#ff8620, #5c79a3);strokeWidth=4;perimeterSpacing=0;shadow=1;" parent="WIyWlLk6GJQsqaUBKTNV-1" vertex="1">
          <mxGeometry x="506" y="525" width="261" height="286" as="geometry" />
        </mxCell>
        <mxCell id="5psIUY1SIHQBk0JDd5z6-27" value="" style="rounded=1;whiteSpace=wrap;html=1;fillColor=light-dark(#ffffff, #F0F6FF);strokeColor=light-dark(#ff8620, #5c79a3);strokeWidth=4;glass=0;shadow=1;" parent="WIyWlLk6GJQsqaUBKTNV-1" vertex="1">
          <mxGeometry x="131" y="553" width="301" height="258" as="geometry" />
        </mxCell>
        <mxCell id="5psIUY1SIHQBk0JDd5z6-16" value="" style="rounded=1;whiteSpace=wrap;html=1;fillColor=light-dark(#ffffff, #F0F6FF);strokeColor=light-dark(#ff8620, #5c79a3);strokeWidth=4;glass=0;shadow=1;" parent="WIyWlLk6GJQsqaUBKTNV-1" vertex="1">
          <mxGeometry x="130.5" y="274" width="300" height="267" as="geometry" />
        </mxCell>
        <mxCell id="5psIUY1SIHQBk0JDd5z6-4" value="" style="rounded=1;whiteSpace=wrap;html=1;fillColor=light-dark(#ffffff, #F0F6FF);strokeColor=light-dark(#ff8620, #5c79a3);strokeWidth=4;glass=0;shadow=1;" parent="WIyWlLk6GJQsqaUBKTNV-1" vertex="1">
          <mxGeometry x="130" y="121" width="301" height="145" as="geometry" />
        </mxCell>
        <mxCell id="PkXMm8z1b6Bf_O5adaUg-0" style="edgeStyle=orthogonalEdgeStyle;rounded=0;orthogonalLoop=1;jettySize=auto;html=1;" parent="WIyWlLk6GJQsqaUBKTNV-1" source="5psIUY1SIHQBk0JDd5z6-0" target="5psIUY1SIHQBk0JDd5z6-6" edge="1">
          <mxGeometry relative="1" as="geometry" />
        </mxCell>
        <mxCell id="5psIUY1SIHQBk0JDd5z6-0" value="Interviews (~20)" style="rounded=1;whiteSpace=wrap;html=1;fontSize=17;glass=0;strokeWidth=0;shadow=0;fillColor=light-dark(#24b901, #1f2f1e);strokeColor=light-dark(#24b901, #446E2C);opacity=20;" parent="WIyWlLk6GJQsqaUBKTNV-1" vertex="1">
          <mxGeometry x="197" y="139" width="166" height="31" as="geometry" />
        </mxCell>
        <mxCell id="5psIUY1SIHQBk0JDd5z6-5" value="RQ1" style="text;html=1;align=center;verticalAlign=middle;whiteSpace=wrap;rounded=0;" parent="WIyWlLk6GJQsqaUBKTNV-1" vertex="1">
          <mxGeometry x="130" y="121" width="60" height="30" as="geometry" />
        </mxCell>
        <mxCell id="5psIUY1SIHQBk0JDd5z6-18" style="edgeStyle=orthogonalEdgeStyle;rounded=0;orthogonalLoop=1;jettySize=auto;html=1;entryX=0.5;entryY=0;entryDx=0;entryDy=0;" parent="WIyWlLk6GJQsqaUBKTNV-1" source="5psIUY1SIHQBk0JDd5z6-6" target="5psIUY1SIHQBk0JDd5z6-9" edge="1">
          <mxGeometry relative="1" as="geometry" />
        </mxCell>
        <mxCell id="5psIUY1SIHQBk0JDd5z6-6" value="Main challenges and opportunities for using LLM for data visualization" style="rounded=1;whiteSpace=wrap;html=1;fillColor=light-dark(#ff8620, #36210a);strokeColor=light-dark(#ff8620, #996500);gradientColor=none;fontSize=15;fontStyle=1;strokeWidth=0;glass=0;shadow=0;fillStyle=auto;opacity=40;perimeterSpacing=0;" parent="WIyWlLk6GJQsqaUBKTNV-1" vertex="1">
          <mxGeometry x="140" y="194" width="280" height="50" as="geometry" />
        </mxCell>
        <mxCell id="5psIUY1SIHQBk0JDd5z6-11" value="" style="edgeStyle=orthogonalEdgeStyle;rounded=0;orthogonalLoop=1;jettySize=auto;html=1;" parent="WIyWlLk6GJQsqaUBKTNV-1" source="5psIUY1SIHQBk0JDd5z6-9" target="5psIUY1SIHQBk0JDd5z6-10" edge="1">
          <mxGeometry relative="1" as="geometry" />
        </mxCell>
        <mxCell id="5psIUY1SIHQBk0JDd5z6-9" value="A/B testing" style="rounded=1;whiteSpace=wrap;html=1;fontSize=17;glass=0;strokeWidth=0;shadow=0;fillColor=light-dark(#24b901, #1f2f1e);strokeColor=light-dark(#24b901, #446E2C);opacity=20;" parent="WIyWlLk6GJQsqaUBKTNV-1" vertex="1">
          <mxGeometry x="220" y="293" width="120" height="40" as="geometry" />
        </mxCell>
        <mxCell id="5psIUY1SIHQBk0JDd5z6-10" value="Identify factors that influence on creation of qualitative prompts" style="rounded=1;whiteSpace=wrap;html=1;fillColor=light-dark(#ff8620, #36210a);strokeColor=light-dark(#ff8620, #996500);fontSize=15;fontStyle=1;strokeWidth=0;glass=0;shadow=0;fillStyle=auto;gradientColor=none;opacity=40;perimeterSpacing=0;" parent="WIyWlLk6GJQsqaUBKTNV-1" vertex="1">
          <mxGeometry x="139" y="350" width="282" height="44" as="geometry" />
        </mxCell>
        <mxCell id="PZxoOIjdlAdTznvzZ0Yh-3" style="edgeStyle=orthogonalEdgeStyle;rounded=0;orthogonalLoop=1;jettySize=auto;html=1;exitX=0.5;exitY=1;exitDx=0;exitDy=0;entryX=0.5;entryY=0;entryDx=0;entryDy=0;" edge="1" parent="WIyWlLk6GJQsqaUBKTNV-1" source="5psIUY1SIHQBk0JDd5z6-12" target="5psIUY1SIHQBk0JDd5z6-14">
          <mxGeometry relative="1" as="geometry" />
        </mxCell>
        <mxCell id="5psIUY1SIHQBk0JDd5z6-12" value="Factorial experiment" style="rounded=1;whiteSpace=wrap;html=1;fontSize=17;glass=0;strokeWidth=0;shadow=0;fillColor=light-dark(#24b901, #1f2f1e);strokeColor=light-dark(#24b901, #446E2C);opacity=20;" parent="WIyWlLk6GJQsqaUBKTNV-1" vertex="1">
          <mxGeometry x="189" y="406" width="184" height="36" as="geometry" />
        </mxCell>
        <mxCell id="5psIUY1SIHQBk0JDd5z6-20" value="" style="edgeStyle=orthogonalEdgeStyle;rounded=0;orthogonalLoop=1;jettySize=auto;html=1;" parent="WIyWlLk6GJQsqaUBKTNV-1" source="5psIUY1SIHQBk0JDd5z6-14" target="5psIUY1SIHQBk0JDd5z6-19" edge="1">
          <mxGeometry relative="1" as="geometry" />
        </mxCell>
        <mxCell id="PZxoOIjdlAdTznvzZ0Yh-12" style="edgeStyle=orthogonalEdgeStyle;rounded=0;orthogonalLoop=1;jettySize=auto;html=1;exitX=1;exitY=0.5;exitDx=0;exitDy=0;entryX=0;entryY=0.5;entryDx=0;entryDy=0;strokeColor=light-dark(#24b901, #ededed);strokeWidth=5;" edge="1" parent="WIyWlLk6GJQsqaUBKTNV-1" source="5psIUY1SIHQBk0JDd5z6-14" target="5psIUY1SIHQBk0JDd5z6-30">
          <mxGeometry relative="1" as="geometry">
            <Array as="points">
              <mxPoint x="445" y="498" />
              <mxPoint x="445" y="572" />
            </Array>
          </mxGeometry>
        </mxCell>
        <mxCell id="5psIUY1SIHQBk0JDd5z6-14" value="Principles/patterns for creating prompts that accurately understood by LLM" style="rounded=1;whiteSpace=wrap;html=1;fillColor=light-dark(#ff8620, #36210a);strokeColor=light-dark(#ff8620, #996500);fontSize=15;fontStyle=1;strokeWidth=0;glass=0;shadow=0;fillStyle=auto;gradientColor=none;opacity=40;perimeterSpacing=0;" parent="WIyWlLk6GJQsqaUBKTNV-1" vertex="1">
          <mxGeometry x="149.5" y="469" width="268" height="57" as="geometry" />
        </mxCell>
        <mxCell id="5psIUY1SIHQBk0JDd5z6-17" value="RQ2" style="text;html=1;align=center;verticalAlign=middle;whiteSpace=wrap;rounded=0;" parent="WIyWlLk6GJQsqaUBKTNV-1" vertex="1">
          <mxGeometry x="130" y="280" width="60" height="30" as="geometry" />
        </mxCell>
        <mxCell id="PZxoOIjdlAdTznvzZ0Yh-7" style="edgeStyle=orthogonalEdgeStyle;rounded=0;orthogonalLoop=1;jettySize=auto;html=1;exitX=0.5;exitY=1;exitDx=0;exitDy=0;entryX=0.5;entryY=0;entryDx=0;entryDy=0;" edge="1" parent="WIyWlLk6GJQsqaUBKTNV-1" source="5psIUY1SIHQBk0JDd5z6-19" target="5psIUY1SIHQBk0JDd5z6-21">
          <mxGeometry relative="1" as="geometry" />
        </mxCell>
        <mxCell id="5psIUY1SIHQBk0JDd5z6-19" value="Task complexity experiment" style="rounded=1;whiteSpace=wrap;html=1;fontSize=17;glass=0;strokeWidth=0;shadow=0;fillColor=light-dark(#24b901, #1f2f1e);strokeColor=light-dark(#24b901, #446E2C);opacity=20;" parent="WIyWlLk6GJQsqaUBKTNV-1" vertex="1">
          <mxGeometry x="162.75" y="584" width="241.5" height="28.5" as="geometry" />
        </mxCell>
        <mxCell id="PZxoOIjdlAdTznvzZ0Yh-8" style="edgeStyle=orthogonalEdgeStyle;rounded=0;orthogonalLoop=1;jettySize=auto;html=1;exitX=0.5;exitY=1;exitDx=0;exitDy=0;entryX=0.5;entryY=0;entryDx=0;entryDy=0;" edge="1" parent="WIyWlLk6GJQsqaUBKTNV-1" source="5psIUY1SIHQBk0JDd5z6-21" target="5psIUY1SIHQBk0JDd5z6-23">
          <mxGeometry relative="1" as="geometry" />
        </mxCell>
        <mxCell id="5psIUY1SIHQBk0JDd5z6-21" value="Optimal complexity of tasks for using principles/patterns from RQ2" style="rounded=1;whiteSpace=wrap;html=1;fillColor=light-dark(#ff8620, #36210a);strokeColor=light-dark(#ff8620, #996500);fontSize=15;fontStyle=1;strokeWidth=0;glass=0;shadow=0;fillStyle=auto;gradientColor=none;opacity=40;perimeterSpacing=0;" parent="WIyWlLk6GJQsqaUBKTNV-1" vertex="1">
          <mxGeometry x="142.5" y="632" width="282" height="48" as="geometry" />
        </mxCell>
        <mxCell id="PZxoOIjdlAdTznvzZ0Yh-11" style="edgeStyle=orthogonalEdgeStyle;rounded=0;orthogonalLoop=1;jettySize=auto;html=1;exitX=0.5;exitY=1;exitDx=0;exitDy=0;entryX=0.5;entryY=0;entryDx=0;entryDy=0;" edge="1" parent="WIyWlLk6GJQsqaUBKTNV-1" source="5psIUY1SIHQBk0JDd5z6-23" target="5psIUY1SIHQBk0JDd5z6-25">
          <mxGeometry relative="1" as="geometry" />
        </mxCell>
        <mxCell id="5psIUY1SIHQBk0JDd5z6-23" value="A/B testing" style="rounded=1;whiteSpace=wrap;html=1;fontSize=17;glass=0;strokeWidth=0;shadow=0;fillColor=light-dark(#24b901, #1f2f1e);strokeColor=light-dark(#24b901, #446E2C);opacity=20;" parent="WIyWlLk6GJQsqaUBKTNV-1" vertex="1">
          <mxGeometry x="221.5" y="700" width="124" height="28" as="geometry" />
        </mxCell>
        <mxCell id="PZxoOIjdlAdTznvzZ0Yh-13" style="edgeStyle=orthogonalEdgeStyle;rounded=0;orthogonalLoop=1;jettySize=auto;html=1;exitX=1;exitY=0.5;exitDx=0;exitDy=0;entryX=0;entryY=0.5;entryDx=0;entryDy=0;strokeColor=light-dark(#24b901, #ededed);strokeWidth=5;" edge="1" parent="WIyWlLk6GJQsqaUBKTNV-1" source="5psIUY1SIHQBk0JDd5z6-25" target="5psIUY1SIHQBk0JDd5z6-30">
          <mxGeometry relative="1" as="geometry">
            <Array as="points">
              <mxPoint x="445" y="769" />
              <mxPoint x="445" y="572" />
            </Array>
          </mxGeometry>
        </mxCell>
        <mxCell id="5psIUY1SIHQBk0JDd5z6-25" value="Principles/patterns for&amp;nbsp;fragmentation of the main task to sub-tasks&amp;nbsp;" style="rounded=1;whiteSpace=wrap;html=1;fillColor=light-dark(#ff8620, #36210a);strokeColor=light-dark(#ff8620, #996500);fontSize=15;fontStyle=1;strokeWidth=0;glass=0;shadow=0;fillStyle=auto;gradientColor=none;opacity=40;perimeterSpacing=0;" parent="WIyWlLk6GJQsqaUBKTNV-1" vertex="1">
          <mxGeometry x="142.5" y="745" width="282" height="47" as="geometry" />
        </mxCell>
        <mxCell id="5psIUY1SIHQBk0JDd5z6-28" value="RQ3" style="text;html=1;align=center;verticalAlign=middle;whiteSpace=wrap;rounded=0;" parent="WIyWlLk6GJQsqaUBKTNV-1" vertex="1">
          <mxGeometry x="145.66" y="554" width="60" height="30" as="geometry" />
        </mxCell>
        <mxCell id="5psIUY1SIHQBk0JDd5z6-32" value="" style="edgeStyle=orthogonalEdgeStyle;rounded=0;orthogonalLoop=1;jettySize=auto;html=1;" parent="WIyWlLk6GJQsqaUBKTNV-1" source="5psIUY1SIHQBk0JDd5z6-30" target="5psIUY1SIHQBk0JDd5z6-31" edge="1">
          <mxGeometry relative="1" as="geometry" />
        </mxCell>
        <mxCell id="5psIUY1SIHQBk0JDd5z6-30" value="Workshop, Lecture or Popular Science Article" style="rounded=1;whiteSpace=wrap;html=1;fillColor=light-dark(#ff8620, #36210a);strokeColor=light-dark(#ff8620, #996500);fontSize=15;fontColor=light-dark(#241f31, #ededed);fontStyle=1;strokeWidth=0;glass=0;shadow=0;fillStyle=auto;gradientColor=none;opacity=40;perimeterSpacing=0;" parent="WIyWlLk6GJQsqaUBKTNV-1" vertex="1">
          <mxGeometry x="518" y="541" width="235" height="61" as="geometry" />
        </mxCell>
        <mxCell id="5psIUY1SIHQBk0JDd5z6-82" value="" style="edgeStyle=orthogonalEdgeStyle;rounded=0;orthogonalLoop=1;jettySize=auto;html=1;" parent="WIyWlLk6GJQsqaUBKTNV-1" source="5psIUY1SIHQBk0JDd5z6-31" target="5psIUY1SIHQBk0JDd5z6-81" edge="1">
          <mxGeometry relative="1" as="geometry" />
        </mxCell>
        <mxCell id="5psIUY1SIHQBk0JDd5z6-31" value="Test" style="rounded=1;whiteSpace=wrap;html=1;fontSize=17;glass=0;strokeWidth=0;shadow=0;fillColor=light-dark(#24b901, #1f2f1e);strokeColor=light-dark(#24b901, #446E2C);opacity=20;" parent="WIyWlLk6GJQsqaUBKTNV-1" vertex="1">
          <mxGeometry x="575" y="648.5" width="120" height="40" as="geometry" />
        </mxCell>
        <mxCell id="5psIUY1SIHQBk0JDd5z6-35" value="" style="rounded=0;whiteSpace=wrap;html=1;fillColor=light-dark(#F0F6FF,#F0F6FF);strokeColor=#6c8ebf;" parent="WIyWlLk6GJQsqaUBKTNV-1" vertex="1">
          <mxGeometry x="916" y="524" width="300" height="230" as="geometry" />
        </mxCell>
        <mxCell id="5psIUY1SIHQBk0JDd5z6-36" value="" style="rounded=0;whiteSpace=wrap;html=1;fillColor=light-dark(#F0F6FF,#F0F6FF);strokeColor=#6c8ebf;" parent="WIyWlLk6GJQsqaUBKTNV-1" vertex="1">
          <mxGeometry x="916" y="284" width="300" height="240" as="geometry" />
        </mxCell>
        <mxCell id="5psIUY1SIHQBk0JDd5z6-37" value="" style="rounded=0;whiteSpace=wrap;html=1;fillColor=light-dark(#F0F6FF,#F0F6FF);strokeColor=#6c8ebf;" parent="WIyWlLk6GJQsqaUBKTNV-1" vertex="1">
          <mxGeometry x="916" y="144" width="300" height="140" as="geometry" />
        </mxCell>
        <mxCell id="5psIUY1SIHQBk0JDd5z6-41" value="Interviews (~20)" style="rounded=1;whiteSpace=wrap;html=1;fontSize=12;glass=0;strokeWidth=1;shadow=0;fillColor=#d5e8d4;strokeColor=#82b366;" parent="WIyWlLk6GJQsqaUBKTNV-1" vertex="1">
          <mxGeometry x="1006" y="165" width="120" height="40" as="geometry" />
        </mxCell>
        <mxCell id="5psIUY1SIHQBk0JDd5z6-42" value="" style="edgeStyle=orthogonalEdgeStyle;rounded=0;orthogonalLoop=1;jettySize=auto;html=1;exitX=0.5;exitY=1;exitDx=0;exitDy=0;" parent="WIyWlLk6GJQsqaUBKTNV-1" source="5psIUY1SIHQBk0JDd5z6-41" target="5psIUY1SIHQBk0JDd5z6-46" edge="1">
          <mxGeometry relative="1" as="geometry">
            <mxPoint x="1065.9999999999998" y="209" as="sourcePoint" />
          </mxGeometry>
        </mxCell>
        <mxCell id="5psIUY1SIHQBk0JDd5z6-44" value="RQ1" style="text;html=1;align=center;verticalAlign=middle;whiteSpace=wrap;rounded=0;" parent="WIyWlLk6GJQsqaUBKTNV-1" vertex="1">
          <mxGeometry x="916" y="144" width="60" height="30" as="geometry" />
        </mxCell>
        <mxCell id="5psIUY1SIHQBk0JDd5z6-45" style="edgeStyle=orthogonalEdgeStyle;rounded=0;orthogonalLoop=1;jettySize=auto;html=1;entryX=0.5;entryY=0;entryDx=0;entryDy=0;" parent="WIyWlLk6GJQsqaUBKTNV-1" source="5psIUY1SIHQBk0JDd5z6-46" target="5psIUY1SIHQBk0JDd5z6-48" edge="1">
          <mxGeometry relative="1" as="geometry" />
        </mxCell>
        <mxCell id="5psIUY1SIHQBk0JDd5z6-46" value="Main challenges and opportunities for using LLM for data visualization" style="rounded=0;whiteSpace=wrap;html=1;fillColor=light-dark(#fdf5ed, #36210a);strokeColor=#d79b00;gradientColor=none;" parent="WIyWlLk6GJQsqaUBKTNV-1" vertex="1">
          <mxGeometry x="926" y="244" width="280" height="30" as="geometry" />
        </mxCell>
        <mxCell id="5psIUY1SIHQBk0JDd5z6-47" value="" style="edgeStyle=orthogonalEdgeStyle;rounded=0;orthogonalLoop=1;jettySize=auto;html=1;" parent="WIyWlLk6GJQsqaUBKTNV-1" source="5psIUY1SIHQBk0JDd5z6-48" target="5psIUY1SIHQBk0JDd5z6-50" edge="1">
          <mxGeometry relative="1" as="geometry" />
        </mxCell>
        <mxCell id="5psIUY1SIHQBk0JDd5z6-48" value="A/B testing" style="rounded=1;whiteSpace=wrap;html=1;fontSize=12;glass=0;strokeWidth=1;shadow=0;fillColor=#d5e8d4;strokeColor=#82b366;" parent="WIyWlLk6GJQsqaUBKTNV-1" vertex="1">
          <mxGeometry x="1006" y="304" width="120" height="40" as="geometry" />
        </mxCell>
        <mxCell id="5psIUY1SIHQBk0JDd5z6-49" value="" style="edgeStyle=orthogonalEdgeStyle;rounded=0;orthogonalLoop=1;jettySize=auto;html=1;" parent="WIyWlLk6GJQsqaUBKTNV-1" source="5psIUY1SIHQBk0JDd5z6-50" target="5psIUY1SIHQBk0JDd5z6-52" edge="1">
          <mxGeometry relative="1" as="geometry" />
        </mxCell>
        <mxCell id="5psIUY1SIHQBk0JDd5z6-50" value="Identify factors that influence on creation of qualitative prompts" style="rounded=0;whiteSpace=wrap;html=1;fillColor=light-dark(#faf5ee, #36210a);strokeColor=#d79b00;" parent="WIyWlLk6GJQsqaUBKTNV-1" vertex="1">
          <mxGeometry x="926" y="364" width="280" height="30" as="geometry" />
        </mxCell>
        <mxCell id="5psIUY1SIHQBk0JDd5z6-51" value="" style="edgeStyle=orthogonalEdgeStyle;rounded=0;orthogonalLoop=1;jettySize=auto;html=1;" parent="WIyWlLk6GJQsqaUBKTNV-1" source="5psIUY1SIHQBk0JDd5z6-52" target="5psIUY1SIHQBk0JDd5z6-54" edge="1">
          <mxGeometry relative="1" as="geometry" />
        </mxCell>
        <mxCell id="5psIUY1SIHQBk0JDd5z6-52" value="Factorial experiment" style="rounded=1;whiteSpace=wrap;html=1;fontSize=12;glass=0;strokeWidth=1;shadow=0;fillColor=#d5e8d4;strokeColor=#82b366;" parent="WIyWlLk6GJQsqaUBKTNV-1" vertex="1">
          <mxGeometry x="1006" y="414" width="120" height="40" as="geometry" />
        </mxCell>
        <mxCell id="5psIUY1SIHQBk0JDd5z6-53" value="" style="edgeStyle=orthogonalEdgeStyle;rounded=0;orthogonalLoop=1;jettySize=auto;html=1;" parent="WIyWlLk6GJQsqaUBKTNV-1" source="5psIUY1SIHQBk0JDd5z6-54" target="5psIUY1SIHQBk0JDd5z6-57" edge="1">
          <mxGeometry relative="1" as="geometry" />
        </mxCell>
        <mxCell id="5psIUY1SIHQBk0JDd5z6-54" value="Principles/patterns for creating prompts that accurately understood by LLM" style="rounded=0;whiteSpace=wrap;html=1;fillColor=#ffe6cc;strokeColor=#d79b00;" parent="WIyWlLk6GJQsqaUBKTNV-1" vertex="1">
          <mxGeometry x="926" y="474" width="280" height="30" as="geometry" />
        </mxCell>
        <mxCell id="5psIUY1SIHQBk0JDd5z6-55" value="RQ2" style="text;html=1;align=center;verticalAlign=middle;whiteSpace=wrap;rounded=0;" parent="WIyWlLk6GJQsqaUBKTNV-1" vertex="1">
          <mxGeometry x="916" y="284" width="60" height="30" as="geometry" />
        </mxCell>
        <mxCell id="5psIUY1SIHQBk0JDd5z6-56" value="" style="edgeStyle=orthogonalEdgeStyle;rounded=0;orthogonalLoop=1;jettySize=auto;html=1;" parent="WIyWlLk6GJQsqaUBKTNV-1" source="5psIUY1SIHQBk0JDd5z6-57" target="5psIUY1SIHQBk0JDd5z6-59" edge="1">
          <mxGeometry relative="1" as="geometry" />
        </mxCell>
        <mxCell id="5psIUY1SIHQBk0JDd5z6-57" value="Task complexity experiment" style="rounded=1;whiteSpace=wrap;html=1;fontSize=12;glass=0;strokeWidth=1;shadow=0;fillColor=#d5e8d4;strokeColor=#82b366;" parent="WIyWlLk6GJQsqaUBKTNV-1" vertex="1">
          <mxGeometry x="1006" y="534" width="120" height="40" as="geometry" />
        </mxCell>
        <mxCell id="5psIUY1SIHQBk0JDd5z6-58" value="" style="edgeStyle=orthogonalEdgeStyle;rounded=0;orthogonalLoop=1;jettySize=auto;html=1;" parent="WIyWlLk6GJQsqaUBKTNV-1" source="5psIUY1SIHQBk0JDd5z6-59" target="5psIUY1SIHQBk0JDd5z6-61" edge="1">
          <mxGeometry relative="1" as="geometry" />
        </mxCell>
        <mxCell id="5psIUY1SIHQBk0JDd5z6-59" value="Optimal complexity of tasks for using principles/patterns from RQ2" style="rounded=0;whiteSpace=wrap;html=1;fillColor=light-dark(#f8f5ef, #36210a);strokeColor=#d79b00;" parent="WIyWlLk6GJQsqaUBKTNV-1" vertex="1">
          <mxGeometry x="926" y="594" width="280" height="30" as="geometry" />
        </mxCell>
        <mxCell id="5psIUY1SIHQBk0JDd5z6-60" value="" style="edgeStyle=orthogonalEdgeStyle;rounded=0;orthogonalLoop=1;jettySize=auto;html=1;" parent="WIyWlLk6GJQsqaUBKTNV-1" source="5psIUY1SIHQBk0JDd5z6-61" target="5psIUY1SIHQBk0JDd5z6-62" edge="1">
          <mxGeometry relative="1" as="geometry" />
        </mxCell>
        <mxCell id="5psIUY1SIHQBk0JDd5z6-61" value="A/B testing" style="rounded=1;whiteSpace=wrap;html=1;fontSize=12;glass=0;strokeWidth=1;shadow=0;fillColor=#d5e8d4;strokeColor=#82b366;" parent="WIyWlLk6GJQsqaUBKTNV-1" vertex="1">
          <mxGeometry x="1006" y="644" width="120" height="40" as="geometry" />
        </mxCell>
        <mxCell id="5psIUY1SIHQBk0JDd5z6-62" value="Principles/patterns for&amp;nbsp;fragmentation of the main task to sub-tasks&amp;nbsp;" style="rounded=0;whiteSpace=wrap;html=1;fillColor=#ffe6cc;strokeColor=#d79b00;" parent="WIyWlLk6GJQsqaUBKTNV-1" vertex="1">
          <mxGeometry x="926" y="704" width="280" height="30" as="geometry" />
        </mxCell>
        <mxCell id="5psIUY1SIHQBk0JDd5z6-63" value="RQ3" style="text;html=1;align=center;verticalAlign=middle;whiteSpace=wrap;rounded=0;" parent="WIyWlLk6GJQsqaUBKTNV-1" vertex="1">
          <mxGeometry x="916" y="524" width="60" height="30" as="geometry" />
        </mxCell>
        <mxCell id="5psIUY1SIHQBk0JDd5z6-73" value="Problem&amp;nbsp;&lt;div&gt;Identification&lt;/div&gt;" style="rounded=1;whiteSpace=wrap;html=1;fillColor=light-dark(#24b901, #203a00);strokeColor=light-dark(#23b900, #babdc0);rotation=-90;strokeWidth=3;perimeterSpacing=0;opacity=20;" parent="WIyWlLk6GJQsqaUBKTNV-1" vertex="1">
          <mxGeometry x="57.96" y="151" width="95.3" height="38" as="geometry" />
        </mxCell>
        <mxCell id="5psIUY1SIHQBk0JDd5z6-75" value="Objectives&lt;div&gt;&amp;nbsp;Definition&lt;/div&gt;" style="rounded=1;whiteSpace=wrap;html=1;fillColor=light-dark(#24b901, #203a00);strokeColor=light-dark(#23b900, #babdc0);rotation=-90;strokeWidth=3;perimeterSpacing=0;opacity=20;" parent="WIyWlLk6GJQsqaUBKTNV-1" vertex="1">
          <mxGeometry x="65.55" y="244" width="80.11" height="39.08" as="geometry" />
        </mxCell>
        <mxCell id="5psIUY1SIHQBk0JDd5z6-76" value="Communication" style="rounded=1;whiteSpace=wrap;html=1;fillColor=light-dark(#24b901, #203a00);strokeColor=light-dark(#23b900, #babdc0);rotation=-90;strokeWidth=3;perimeterSpacing=0;opacity=20;" parent="WIyWlLk6GJQsqaUBKTNV-1" vertex="1">
          <mxGeometry x="435.03" y="749" width="94.49" height="35" as="geometry" />
        </mxCell>
        <mxCell id="5psIUY1SIHQBk0JDd5z6-81" value="Write dissertation" style="rounded=1;whiteSpace=wrap;html=1;fontSize=17;glass=0;strokeWidth=0;shadow=0;fillColor=light-dark(#24b901, #1f2f1e);strokeColor=light-dark(#24b901, #446E2C);opacity=20;" parent="WIyWlLk6GJQsqaUBKTNV-1" vertex="1">
          <mxGeometry x="548.5" y="735" width="173" height="48" as="geometry" />
        </mxCell>
        <mxCell id="5psIUY1SIHQBk0JDd5z6-83" value="Design and Development" style="rounded=1;whiteSpace=wrap;html=1;fillColor=light-dark(#24b901, #203a00);strokeColor=light-dark(#23b900, #babdc0);rotation=-90;strokeWidth=3;perimeterSpacing=0;opacity=20;" parent="WIyWlLk6GJQsqaUBKTNV-1" vertex="1">
          <mxGeometry x="-146.08" y="542.02" width="503.38" height="38.45" as="geometry" />
        </mxCell>
        <mxCell id="5psIUY1SIHQBk0JDd5z6-84" value="Demonstration" style="rounded=1;whiteSpace=wrap;html=1;fillColor=light-dark(#24b901, #203a00);strokeColor=light-dark(#23b900, #babdc0);rotation=-90;strokeWidth=3;perimeterSpacing=0;opacity=20;" parent="WIyWlLk6GJQsqaUBKTNV-1" vertex="1">
          <mxGeometry x="432" y="557" width="100.56" height="35.43" as="geometry" />
        </mxCell>
        <mxCell id="5psIUY1SIHQBk0JDd5z6-85" value="Evaluation" style="rounded=1;whiteSpace=wrap;html=1;fillColor=light-dark(#24b901, #203a00);strokeColor=light-dark(#23b900, #babdc0);rotation=-90;strokeWidth=3;perimeterSpacing=0;opacity=20;" parent="WIyWlLk6GJQsqaUBKTNV-1" vertex="1">
          <mxGeometry x="439.58" y="655" width="85.4" height="35" as="geometry" />
        </mxCell>
        <mxCell id="5psIUY1SIHQBk0JDd5z6-88" value="" style="edgeStyle=orthogonalEdgeStyle;rounded=0;orthogonalLoop=1;jettySize=auto;html=1;" parent="WIyWlLk6GJQsqaUBKTNV-1" edge="1">
          <mxGeometry relative="1" as="geometry">
            <mxPoint x="1574" y="110.91999999999997" as="sourcePoint" />
            <mxPoint x="1631" y="110.91999999999997" as="targetPoint" />
            <Array as="points">
              <mxPoint x="1604" y="110.92" />
              <mxPoint x="1604" y="110.92" />
            </Array>
          </mxGeometry>
        </mxCell>
        <mxCell id="5psIUY1SIHQBk0JDd5z6-86" value="TASK" style="rounded=1;whiteSpace=wrap;html=1;fontSize=12;glass=0;strokeWidth=1;shadow=0;fillColor=#d5e8d4;strokeColor=#82b366;" parent="WIyWlLk6GJQsqaUBKTNV-1" vertex="1">
          <mxGeometry x="1454" y="91" width="120" height="40" as="geometry" />
        </mxCell>
        <mxCell id="5psIUY1SIHQBk0JDd5z6-87" value="RESULT" style="rounded=1;whiteSpace=wrap;html=1;fontSize=12;glass=0;strokeWidth=1;shadow=0;fillColor=#d5e8d4;strokeColor=#82b366;" parent="WIyWlLk6GJQsqaUBKTNV-1" vertex="1">
          <mxGeometry x="1631" y="91" width="120" height="40" as="geometry" />
        </mxCell>
        <mxCell id="5psIUY1SIHQBk0JDd5z6-96" value="" style="curved=1;endArrow=classic;html=1;rounded=0;exitX=1;exitY=1;exitDx=0;exitDy=0;entryX=0.001;entryY=0.791;entryDx=0;entryDy=0;entryPerimeter=0;" parent="WIyWlLk6GJQsqaUBKTNV-1" target="5psIUY1SIHQBk0JDd5z6-87" edge="1">
          <mxGeometry width="50" height="50" relative="1" as="geometry">
            <mxPoint x="1574" y="120" as="sourcePoint" />
            <mxPoint x="1633" y="120" as="targetPoint" />
            <Array as="points">
              <mxPoint x="1599.68" y="144.43" />
            </Array>
          </mxGeometry>
        </mxCell>
        <mxCell id="5psIUY1SIHQBk0JDd5z6-97" value="" style="curved=1;endArrow=classic;html=1;rounded=0;exitX=0.98;exitY=0.979;exitDx=0;exitDy=0;exitPerimeter=0;" parent="WIyWlLk6GJQsqaUBKTNV-1" source="5psIUY1SIHQBk0JDd5z6-86" edge="1">
          <mxGeometry width="50" height="50" relative="1" as="geometry">
            <mxPoint x="1574" y="130" as="sourcePoint" />
            <mxPoint x="1633" y="130" as="targetPoint" />
            <Array as="points">
              <mxPoint x="1600" y="165" />
            </Array>
          </mxGeometry>
        </mxCell>
        <mxCell id="5psIUY1SIHQBk0JDd5z6-98" value="" style="curved=1;endArrow=classic;html=1;rounded=0;exitX=0.855;exitY=1.006;exitDx=0;exitDy=0;exitPerimeter=0;entryX=0.212;entryY=0.993;entryDx=0;entryDy=0;entryPerimeter=0;" parent="WIyWlLk6GJQsqaUBKTNV-1" source="5psIUY1SIHQBk0JDd5z6-86" edge="1">
          <mxGeometry width="50" height="50" relative="1" as="geometry">
            <mxPoint x="1553" y="132.32000000000002" as="sourcePoint" />
            <mxPoint x="1650.68" y="131" as="targetPoint" />
            <Array as="points">
              <mxPoint x="1604.24" y="175.28" />
            </Array>
          </mxGeometry>
        </mxCell>
        <mxCell id="5psIUY1SIHQBk0JDd5z6-101" value="" style="edgeStyle=orthogonalEdgeStyle;rounded=0;orthogonalLoop=1;jettySize=auto;html=1;" parent="WIyWlLk6GJQsqaUBKTNV-1" edge="1">
          <mxGeometry relative="1" as="geometry">
            <mxPoint x="1574" y="118.33999999999997" as="sourcePoint" />
            <mxPoint x="1631" y="118.33999999999997" as="targetPoint" />
            <Array as="points">
              <mxPoint x="1604" y="118.34" />
              <mxPoint x="1604" y="118.34" />
            </Array>
          </mxGeometry>
        </mxCell>
        <mxCell id="5psIUY1SIHQBk0JDd5z6-102" value="" style="edgeStyle=orthogonalEdgeStyle;rounded=0;orthogonalLoop=1;jettySize=auto;html=1;" parent="WIyWlLk6GJQsqaUBKTNV-1" edge="1">
          <mxGeometry relative="1" as="geometry">
            <mxPoint x="1574" y="103.96999999999997" as="sourcePoint" />
            <mxPoint x="1631" y="103.96999999999997" as="targetPoint" />
            <Array as="points">
              <mxPoint x="1604" y="103.97" />
              <mxPoint x="1604" y="103.97" />
            </Array>
          </mxGeometry>
        </mxCell>
        <mxCell id="5psIUY1SIHQBk0JDd5z6-104" value="" style="curved=1;endArrow=classic;html=1;rounded=0;exitX=1;exitY=1;exitDx=0;exitDy=0;entryX=0.001;entryY=0.791;entryDx=0;entryDy=0;entryPerimeter=0;" parent="WIyWlLk6GJQsqaUBKTNV-1" edge="1">
          <mxGeometry width="50" height="50" relative="1" as="geometry">
            <mxPoint x="1574" y="96.07" as="sourcePoint" />
            <mxPoint x="1631" y="99.07" as="targetPoint" />
            <Array as="points">
              <mxPoint x="1601" y="82.28" />
            </Array>
          </mxGeometry>
        </mxCell>
        <mxCell id="5psIUY1SIHQBk0JDd5z6-105" value="" style="curved=1;endArrow=classic;html=1;rounded=0;exitX=0.925;exitY=-0.002;exitDx=0;exitDy=0;entryX=0.055;entryY=-0.003;entryDx=0;entryDy=0;entryPerimeter=0;exitPerimeter=0;" parent="WIyWlLk6GJQsqaUBKTNV-1" source="5psIUY1SIHQBk0JDd5z6-86" edge="1">
          <mxGeometry width="50" height="50" relative="1" as="geometry">
            <mxPoint x="1568" y="90.91" as="sourcePoint" />
            <mxPoint x="1638.6" y="91" as="targetPoint" />
            <Array as="points">
              <mxPoint x="1600" y="61" />
            </Array>
          </mxGeometry>
        </mxCell>
        <mxCell id="5psIUY1SIHQBk0JDd5z6-106" value="" style="curved=1;endArrow=classic;html=1;rounded=0;exitX=0.879;exitY=0.017;exitDx=0;exitDy=0;entryX=0.22;entryY=0.015;entryDx=0;entryDy=0;exitPerimeter=0;entryPerimeter=0;" parent="WIyWlLk6GJQsqaUBKTNV-1" source="5psIUY1SIHQBk0JDd5z6-86" target="5psIUY1SIHQBk0JDd5z6-87" edge="1">
          <mxGeometry width="50" height="50" relative="1" as="geometry">
            <mxPoint x="1555" y="80" as="sourcePoint" />
            <mxPoint x="1664" y="80" as="targetPoint" />
            <Array as="points">
              <mxPoint x="1590" y="50" />
            </Array>
          </mxGeometry>
        </mxCell>
        <mxCell id="5psIUY1SIHQBk0JDd5z6-107" value="Text" style="text;html=1;align=center;verticalAlign=middle;whiteSpace=wrap;rounded=0;" parent="WIyWlLk6GJQsqaUBKTNV-1" vertex="1">
          <mxGeometry x="1574" y="36" width="60" height="30" as="geometry" />
        </mxCell>
        <mxCell id="PZxoOIjdlAdTznvzZ0Yh-0" value="" style="shape=image;imageAspect=0;aspect=fixed;verticalLabelPosition=bottom;verticalAlign=top;image=data:image/png,iVBORw0KGgoAAAANSUhEUgAABeYAAAKaCAYAAABbQolqAAAABmJLR0QA/wD/AP+gvaeTAAAACXBIWXMAAC4jAAAuIwF4pT92AABkqklEQVR42u39TW8kWbondj7WWdN1Z67mkpfqBihcAcGiAgK6IYBeH0AIz4VyNcP0gno1woAenyCZy1glc8VlMpezCuditFKjPKhdXAzSY75AOQGhe5MTRQpXGALdwyKvUJqqHlTbLMw8gxEZL3S6+bG33w8gsiozwo/Zc445yb8dfyzL8zwAAAAAAIA0/okSAAAAAABAOoJ5AAAAAABISDAPAAAAAAAJCeYBAAAAACAhwTwAAAAAACQkmAcAAAAAgIQE8wAAAAAAkJBgHgAAAAAAEhLMAwAAAABAQoJ5AAAAAABISDAPAAAAAAAJCeYBAAAAACAhwTwAAAAAACQkmAcAAAAAgIQE8wAAAAAAkJBgHgAAAAAAEhLMAwAAAABAQoJ5AAAAAABISDAPAAAAAAAJCeYBAAAAACAhwTwAAAAAACQkmAcAAAAAgIQE8wAAAAAAkJBgHgAAAAAAEhLMAwAAAABAQoJ5AAAAAABISDAPAAAAAAAJCeYBAAAAACAhwTwAAAAAACQkmAcAAAAAgIQE8wAAAAAAkJBgHgAAAAAAEhLMAwAAAABAQoJ5AAAAAABISDAPAAAAAAAJCeYBAAAAACAhwTwAAAAAACQkmAcAAAAAgIQE8wAAAAAAkJBgHgAAAAAAEhLMAwAAAABAQoJ5AAAAAABISDAPAAAAAAAJCeYBAAAAACAhwTwAAAAAACQkmAcAAAAAgIQE8wAAAAAAkJBgHgAAAAAAEhLMAwAAAABAQoJ5AAAAAABISDAPAAAAAAAJCeYBAAAAACAhwTwAAAAAACQkmAcAAAAAgIQE8wAAAAAAkJBgHgAAAAAAEhLMAwAAAABAQoJ5AAAAAABISDAPAAAAAAAJCeYBAAAAACAhwTwAAAAAACQkmAcAAAAAgIQE8wAAAAAAkJBgHgAAAAAAEhLMAwAAAABAQoJ5AAAAAABISDAPAAAAAAAJCeYBAAAAACAhwTwAAAAAACQkmAcAAAAAgIQE8wAAAAAAkJBgHgAAAAAAEhLMAwAAAABAQoJ5AAAAAABISDAPAAAAAAAJCeYBAAAAACAhwTwAAAAAACQkmAcAAAAAgIQE8wAAAAAAkJBgHgAAAAAAEhLMAwAAAABAQoJ5AAAAAABISDAPAAAAAAAJCeYBAAAAACAhwTwAAAAAACQkmAcAAAAAgIQE8wAAAAAAkJBgHgAAAAAAEhLMAwAAAABAQoJ5AAAAAABISDAPAAAAAAAJCeYBAAAAACAhwTwAAAAAACQkmAcAAAAAgIQE8wAAAAAAkJBgHgAAAAAAEhLMAwAAAABAQoJ5AAAAAABISDAPAAAAAAAJCeYBAAAAACAhwTwAAAAAACQkmAcAAAAAgIQE8wAAAAAAkJBgHgAAAAAAEhLMAwAAAABAQoJ5AAAAAABISDAPAAAAAAAJCeYBAAAAACAhwTyNc729P7ne3h+pBAAAAADQRVme56pAY1xv708i4iAibiNiuHV1NlcVAAAAAKBL7JinMe6E8hERGxExu97eH6gMAAAAANAlgnka4Z1QfkE4DwAAAAB0jlY21O4DofxdlxEx2Lo6u1EtAAAAAKDt7JinVtfb+0fx8VA+IuJRFDvnN1UMAAAAAGg7O+apzfX2/jgini/xV86jeCDsjeoBAAAAAG1lxzy1KPvGP1/yr+1FxFT1AAAAAIA2E8yT3PX2/k5EzB7415+UPekBAAAAAFpJME9SZZ/4aURsrPAyB8J5AAAAAKCtBPOkdhJFS5pVCecBAAAAgFYSzJPM9fb+YUQcVPiSB+UDZAEAAAAAWiPL81wVWLvyYa+/W9PLP926OpuoMgAAAADQBnbMs3Z3+sqvy3M75wEAAACAthDMk8JJRDxa8xjPy135AAAAAACNJphnra6390dRbV/5j5kJ5wEAAACAptNjnrUpW9hcRMRGwmFvI2K4dXU2NwMAAAAAQBPZMc86TSJtKB/leLPypgAAAAAAQOMI5lmLsoXNlzUNL5wHAAAAABpLKxsqV1MLm/c5j6KtzY1ZAQAAAACawo551uEk6g/lIyL2ws55AAAAAKBhBPNU6np7fxgRBw06pL0obhQAAAAAADSCYJ6qnTTwmA6ut/cnpgYAAAAAaALBPJW53t4/jGKHehMJ5wEAAACARvDwVyrRoAe+fsrXW1dnJ2YMAAAAAKiLHfNU5TCaH8pHRHx3vb0/Nl0AAAAAQF3smGdl19v7OxHx+5Yd9tOtq7OJ2QMAAAAAUrNjnioctfCYn19v7w9NHQAAAACQmh3zrKSlu+UXbiNiuHV1NjeTAAAAAEAqdsyzqqMWH/tGRMyut/cHphEAAAAASMWOeR6s5bvl77JzHgAAAABIxo55VnHUkfPYiIjJ9fb+pikFAAAAANZNMM+DlLvlDzp0SnsRMTGzAAAAAMC6CeZ5qKMOntPEtAIAAAAA66bHPEvrUG/5u15sXZ2NzC4AAAAAsG52zPMQ446dz20HzwkAAAAAaCg75llK+YDUiygemNoVv9m6OpuaXQAAAAAgBTvmWdYouhXKvxDKAwAAAAApCeZZ1lGHzuU2Ig5NKQAAAACQkmCee7ve3h9GxKMOndLJ1tXZhZkFAAAAAFISzLOMcYfO5XLr6uzIlAIAAAAAqQnmuZfyoa8HHTqlsVkFAAAAAOogmOe+Rh06l1dbV2czUwoAAAAA1EEwz30dOhcAAAAAgNUJ5vmk6+39nYjY68jpnG5dnc3NKgAAAABQF8E89zHu0LkcmU4AAAAAoE6Cee5j3JHzON26OrswnQAAAABAnQTzfNT19v4gIh515HSOzCgAAAAAUDfBPJ8y7sh52C0PAAAAADSCYJ5PGXbkPI5MJQAAAADQBIJ5Puh6e38nIvY6cCqv7JYHAAAAAJpCMM/HjDpyHkemEgAAAABoCsE8HzPqwDlcbl2dzUwlAAAAANAUgnk+5kkHzuHENAIAAAAATSKY572ut/dHHTmVidkEAAAAAJpEMM+HDDtwDi+2rs5uTCUAAAAA0CSCeT5k2IFzmJhGAAAAAKBpsjzPVYG3XG/vb0bEH1p+GrdbV2ebZhMAAAAAaBo75nmfYQfOYWoaAQAAAIAmEszzPsMOnMPUNAIAAAAATSSY530GHTiHmWkEAAAAAJpIMM/7PGn58b/aujq7MY0AAAAAQBMJ5nnL9fb+oAOnMTWTAAAAAEBTCeZ517AD5zA3jQAAAABAUwnmeddO209g6+psZhoBAAAAgKYSzPOuQcuP/5UpBAAAAACaTDDPu9r+4Ne5KQQAAAAAmkwwz0+ut/d3OnAaczMJAAAAADSZYJ67djpwDnPTCAAAAAA0mWCeu4ZtP4Gtq7O5aQQAAAAAmkwwz12bLT/+S1MIAAAAADSdYJ67Bi0//gtTCAAAAAA0nWCeuzZbfvw3phAAAAAAaDrBPHfttfz456YQAAAAAGi6XygBERHX2/ubqgDA+2RZthMRO4mHvcnzfK76D56zQaT/JFyn5qymGl7keX7xgGPdjPa3JOyTeZ7nN8oAANBvgnkWBkoAwAeMI+KbxGO+ioih0j/YSUQ8MWetq+G3EXH0gL83iIgfLPvW+DwiZsoAANBvWtnQJXMlAAAAAACaTjDPwqAD53BjGgEAAACAphPMs7CpBAAAAAAA6yeYBwAAAACAhATzLGwqAQAAAADA+gnmWRg4BwAAAACA9RPM0yWbSgAAAAAANJ1gHgAAAAAAEhLM0yWbSgAAAAAANJ1gni4ZKAEAAAAA0HSCebpkUwkAAAAAgKYTzNMle0oAAAAAADSdYJ5Oud7e31EFAAAAAKDJBPN0zY4SAAAAAABNJpina4ZKAAAAAAA0mWCerhkoAQAAAADQZIJ5umaoBAAAAABAkwnm6ZoND4AFAAAAAJpMME8XDZUAAAAAAGgqwTxdNFICAAAAAKCpBPMs3HToXIamEwAAAABoKsE8C/MOncvG9fb+yJQCAAAAAE0kmKerhkoAAAAAADSRYJ6uGikBAAAAANBEgnkWZh07n0fa2QAAAAAATfQLJaDDRhExVQYAoMvyPJ9FRNbEY8uybBgRP9Qw9OdlXQAAoJHsmGfhooPnNLre3t80tQAAAABAkwjmiYiIrauziw6e1kboNQ8AAAAANIxgnrtuO3hOR6YVAAAAAGgSwTx3zTt4To+ut/eHphYAAAAAaArBPHdddPS8jkwtAAAAANAUgnnuuujoeT253t7fMb0AAAAAQBMI5rlr3uFzOzK9AAAAAEATCOa566LD53Zg1/wKjnc343hX/QAAAACgAoJ5frJ1dTbv+CkemeUHON7djIhZRMyF8wAAAACwOsE87zrv8LkdXG/vD0zxEt6E8nsRsRER0/LfAQAAAAAPJJjnXfOOn9+JKb6nt0P5hb2ImAnnAQAAAODhBPO8a97x83tyvb0/NM2fcLw7iJ+H8gvCeQAAAABYgWCed817cI4npvkjPh7KL+ypIwAAAAA8jGCet2xdnc16cJp719v7h2b7Pd6E8hv3+NMHcbw7UTQAAAAAWI5gnvfp8gNgF46ut/c3TfUdy4XyC8J5AAAAAFiSYJ73mfXgHDdCK5Y3jndHsXwov3AQx7tHiggAAAAA9yOY531mPTnPAw+CjYjj3XFE/DYeFsovfFO+DgAAAADwCYJ53mfWo3Od9LqlTRGmP6/o1Z4L5wEAAADg0wTz/MzW1dlN9KPPfETEo4g46uVEVxvKLzwv2+IAAAAAAB8gmOdDZj06169619Km6An/fE2vPikfJAsAAAAAvIdgng+Z9ex8+9PS5nh3EhHfrHGEjYiYCecBAAAA4P0E87zX1tXZtGen3I+WNkUof5BgJOE8AAAAAHyAYJ6PedGz8/3qent/1NmzSxfKL2xExDSOdzddSgAAAADwhmCej5n18Jy719LmeHczjndnkTaUX3gUxc75btUUAAAAAFYgmOdjpj08541OnXcRiM8i4kmNR7EXwnkAAAAA+Ilgng/aujq7iIjzHp76k+vt/aPWn8WbUH6vAUezF/280QMAAAAAPyOY51MmPT3vb66394etPfpmhfILT8o+9wAAAADQa4J5PmXa53NvZb/5491BRMyjWaH8woFwHgAAAIC+E8zzUT1uZxNR9JufteqIi1B+FsVDV5vqII53T1xdAAAAAPSVYJ77mPT43Peut/dPWnGkb0L5jRYc7VdxvDt2aQEAAADQR4J57mPS8/P/6np7f9zoI2xXKL/wXDgPAAAAQB8J5vmkrauzm4h40fMynFxv7w8aeWRFuP27aFcovyCcBwAAAKB3BPPc16Tn578REbPGPQy2CLWft7y2z8sd/wAAAADQC4J57mXr6mwaEZc9L0OzwvluhPILM+E8AAAAAH0hmGcZEyWIvYg4qf0ouhXKR5Q3PYTzAAAAAPSBYJ5lTJQgIiIOrrf366vF8e4kuhXKLyzC+U1LDAAAAIAuE8xzb1tXZxcRcaoSEVGE8+Pkoxah/EGH6yqcBwAAAKDzBPMsa6IEP3meNJzvfii/sBfCeQAAAAA6TDDPUrauzmYRca4SP0kTzvcnlF8ownkAAAAA6CDBPA9xogRveX69vT9Yyysf727G8e48+hXKL+yVNyQAAAAAoFME8yxt6+psEhGXKvGWWeXhfNHKZRbF7vG+OhDOAwAAANA1gnke6kgJ3rIRVYbzQvm7hPMAAAAAdIpgngexa/69FuH8zkqvcry7E0L5dx3E8e6hMgAAAADQBYJ5VnGkBD+zERHT6+39zQf97ePdQUTMQyj/Pt/F8e5YGQAAAABoO8E8D2bX/AftRbFzfnOpv1WE8rMown3e77lwHgAAAIC2E8yzqiMleK/lwnmh/DKex/HuUBkAAAAAaCvBPCuxa/6j9iLi5JN/qgiZZyGUX8a0vJkBAAAAAK0jmKcKR0rwQQfX2/uTD/7Xoi3LDyGUX9ZGRMyE8wAAAAC0kWCelZW75l+pxAe9P5wvQvnnyvNgi3B+RykAAAAAaBPBPFU5UoKPOrje3j/86f8J5auyERETZQAAAACgTQTzVGLr6mwWES9U4qO+u97eH8fx7mEI5atyGxGHygAAAABAm/xCCajQYUQMQ7/0D/rrL/5BIF+d24gYxrPXc6UAAAAAoE3smKcyW1dnFxFxohLv99df/EP88l/cKEQ1hPIAAAAAtJZgnkptXZ0dRcSlSrxNKF+p84gYCOUBAAAAaCvBPOswVoJC9su/xH/yf/6fhfLVOY9ip/yFUgAAAADQVoJ5KudBsIXsl3+Jv/lXv49/uvuPFkU1FqH8jVIAAAAA0GaCedZlHEUf8F5ahPKf/bM/WQnVEMoDAAAA0BmCedZi6+rsJnra0kYoX7nTEMoDAAAA0CGCedZm6+psGj1rafPZP/+TUL5ap/Hs9VgoDwAAAECXCOZZt3H0pKXNZ//8T/E3/61QvkJFKA8AAAAAHSOYZ6360tJmEcpnv/yLSa+GUB4AAACAzhLMs3Zdb2kjlK/c10J5AAAAALpMME8q44i47NpJ/dP/4h+F8tV6Gs9enygDAAAAAF0mmCeJsqXNqEvn9Mt/+Yf4T/5P/7NQvjpP49nriTIAAAAA0HWCeZLZujqbR8TXXTiXX/7LP8Rf/zf/i0mtjlAeAAAAgN4QzJPU1tXZSbS837xQvlK3EfFroTwAAAAAfSKYpw7jaGm/+f/Dk/+3UL46txExjGev50oBAAAAQJ8I5kmurf3m//qLf4i/Gvx/TGA1hPIAAAAA9JZgnlqU/eaftuV4//qLf4hf/osbE1cNoTwAAAAAvSaYpzZbV2eTiDht+nEK5St1HhE7QnkAAAAA+kwwT622rs7GEfGqiceW/fIv8Tf/6vdC+eqcR7FTXkEBAAAA6DXBPE0wiiK0bYxFKP+Lv/uj2amGUB4AAAAASoJ5alc+DHYcRe/x2i1C+c/+2Z9MTjWE8gAAAABwh2CeRigfBjus+ziE8pU7jWevB0J5gF7Y7Nj5PKlhzBvLCAAA+kEwT2OU4fzTusb/7J//KTb+ux+F8tU5jWevx8oAUItZDWPuKfvK5koAAAD9IJinUbauziYR8XXqcT/753+Kv/lvfx//5P/4/zMJ1RDKA/RQlmWbHTmPgdkEAADWSTBP42xdnZ1ExGmq8RahfPbLvyh+Nb4XygP01qAj57FjKgEAgHUSzNNIW1dn40gQzgvlK/c0nr0+VAaA2s1rGnfQkfrVdR7zBtUAAABYI8E8jbXucP6X//IPsfF/+VEoX52n8ez1RBkAGuGmpnGHHalfLeeR5/lNs8oAAACsi2CepjuMiPOqX/SX//IP8df/zf+iutURygM0y0VN4w47Ur8nNYx53rgqAAAAayOYp9G2rs5uovglv7JfVoXylboNoTxA4+R5flHT0Bttf3BqlmWjmoa+sXIBAKA/BPM0XpXhvFC+UrcRMRTKAzTWq5rGHbe8bqOaxp1ZsgAA0B+CeVqhDOdHUYTBD/LXX/yDUL46i1B+rhQAjTWvadxRWwuWZdlmjcc/b0whAACAtRPM0xpbV2cXUeycXzqc/+sv/iF++S9uFLEaQnmAdpjXNO6jLMvGLa3ZOCI2ejZfAABADQTztMrW1dk8lgznhfKVugyhPEBbzGoc+6ilNTusadzLGp8LAAAA1EAwT+uU4fzoPn9WKF+p84gYCOUB2qEMei9rGr51u+azLDuKiEc1DT+zYgEAoF8E87TS1tXZLCKefui/Z7/8S2z8dz8K5atzHsVOeQUFaJdZjWMflT3bGy/Lsp2ob7d83fMEAADUQDBPa21dnU3iPeF89su/xN/8q9/HZ//sT4pUDaE8QHtNaxz7UbSnpc0k6ustX/c8AQAANRDM02rvhvNC+cq9CKE8QJvNah7/q6a3tClb2Dyp8RDO8zy/sVQBAKBfBPO0XhnOn/6Tv/kPQvlqncaz1yOhPEB7lYHvi5oP4yTLskET61PeNPim7vpYqQAA0D+CeTph66v/6WTj//rjfxDKV+Y0nr0eKwNAJ0xqHn8jImZNC+fLUP55Aw5laokCAED/COZpv+PdQUTMsl/8x3+qGJUQygN0SJ7n04i4rPkwFuH8sAk1aVAof6qNDQAA9JNgnnYrQ/mo94FtXfKtUB6gkyYNOIaNiPghy7LDug4gy7LNLMsm0YxQvinzAgAA1EAwT3sd7w5DKF+ZP/4//u7/e/39fzVVCYBOmjToWL7LsmyWZdlOykHL3frziDhoSB3O8zyfWZoAANBPgnna6Xh3HBE/hFC+En/8+7+LP/9Pf/u/j4jZ9fb+QEUAuiXP84uIOG3QIT2JiN9nWTZZd0CfZdkgy7JpFD83PGpQDU6sTAAA6C/BPO1ThPJN+Qh66/3x7/8u/vxv/nbxfzdCOA/QVUcNPKaDeBPQj6p60bJlzTjLsllE/C4ivmzYeV/meT6xJAEAoL9+oQS0ilC+MvmfP4s//v3fxX/4f/3Nu/9pIyIm19v7w62rsxuVAmryJMuyXBl+8m2e50ervECe5xdZlp1Gc1q53HUQEQdZlt1GxDSKVnXzPM/n932BslXNICKG0bwg/l1HDT8+AABgzQTztMfx7mFEfKcQq8v//Fn847/+Vfzl3/3Vh/7IXhQ754XzAN1yGBGjaG4ruI0oQ/qIiCzLIiIuI+LiI39n0ODzeZ9XdssDAACCedrheHcSzdzh1zr3COUXhPMAHZPn+U2WZScR8U2LDvtRNKs3/KqOrEQAAECPeZpPKF+ZJUL5hb0oWgoA0BFlS5xzlajF93mez5QBAAAQzNNsQvnK/OXf/1Xc/vf/xTKh/MKT6+39iQoCdMpYCZK7DLvlAQCAkmCeZjre3Yzj3WkI5Svxl3//V/GP/8Ov4j/+4z996EscCOcBuqN8qOq3KpHUOM/zG2UAAAAiBPM00fHuZkTMIuJLxVjdIpTP//zZqi91cL29f6KiAN2gpU1S32phAwAA3CWYp1nehPJ7irG6CkP5ha+ut/fHKgvQGcOIuFWGtXpV3gQBAAD4iWCe5hDKV+rP/3az6lB+4blwHqAbytYqQ5VYm8uIGCkDAADwLsE8zXC8OwihfGX+/G83448v//N1hPILwnmAjij7zT9VicrdRsRIX3kAAOB9BPPUTyhfqUUon8DJ9fb+QMUB2i/P80kI56t0GxHD8qYHAADAzwjmqdebUH5DMVaXMJSPcs5mwnmAbijD+VOVqMShUB4AAPgYwTz1EcpX6n/7f/5nKUP5BeE8QIfkeT4O4fwqbiPiaXmTAwAA4IME89TjeHcUQvnK/PHv/y7+9Lv/tK7hF+H8ppkAaL8ynNfWZnmL9jUTpQAAAD5FME96x7vjiPhtCOUr8ce//7v487/527oPQzgP0CF6zi/tMvSUBwAAliCYJ60ilH+uENVoSCi/sBfCeYDOKMP5X0exE5wPO4+IgVAeAABYhmCedITylcn//Fnc/vePmxTKL+xF0aIIgA4ow+adiHilGu/1fZ7ngzzPb5QCAABYhmCeNI53T0IoX4n8z5/FP/7rX8Vf/t1fNfUQ96639ydmCqAb8jy/yfN8GBHfqsZPbiPi8zzPD5UCAAB4CME863e8O4mIrxRidS0I5RcOhPMA3ZLn+VEUrW3Oe16KFxGxk+f5zKoAAAAeSjDPehWh/IFCrK5FofyCcB6gY/I8n+d5PoiIr6N/vecvo9glP9K6BgAAWJVgnvURylfmL//+r+Lm+X/ZplB+4eB6e39sBgG6Jc/zkyh6z3/fg9O9jYiv8zy3Sx4AAKiMYJ7qHe9uxvHuLITylfjLv/+r+Mf/4VeR//mztp7Cc+E8QPeUvecPI+JXEXHawVO8jaKv/k55IwIAAKAygnmqdby7GRGziHiiGKvrQCi/IJwH6Kg8zy/yPB9HEdB/H+1vcXMZRauenTzPj7StAQAA1kEwT3XehPJ7irG6DoXyC8+vt/eHZhagm8qA/jCKFjdPo30PiX0REb8pW9acCOQBAIB1EsxTDaF8pf78bzfj9v/+uEuh/ML0ent/YIYBuqtscTMpHxL7qyh2nzc1pH8RxU2Evy0f6jo1gwAAQAqCeVYnlK/Un//tZvzx5X/e1dPbiIiZcB6gH8pd9Cd3QvqnUYThdbW7uYyiH/5v4k0YP7E7HgAASC3L81wVeDihfKU6HsrfdRsRg62rswuzDs2XZdlOFO1JqM9FnucXHVxXw3JtLf75qMIhziPiIiLm5ddMAF/LPG9GxKCGoefmGwCAJhPM83BC+Ur9af6fxv/26j/r0ymfR8Rw6+rsxuwDsJBl2SAiNsuvwRJ/dVb+s3M3MQAAgO4RzPMwQvlK/fHv/y7+/G/+to+nLpwHAAAAoHf0mGd5QvlK9TiUj3INza639zetBAAAAAD6QjDPQ0xCKF+JnofyC3sRcWI1AAAAANAXgnmWc7w7iYgvFWI1+Z8/E8q/7eB6e3+iDAAAAAD0gR7z3N/x7klEfKUQq8n//Fn847/+Vfzl3/2VYvzc6dbV2VgZAAAAAOgyO+a5n+PdcQjlVyaU/6SD6+39I2UAAAAAoMvsmOfTjndHEfFbhViNUH4pT7euzibKAAAAAEAXCeb5uOPdQUTMImJDMR7uP/6v/7v4X//HR0L55QjnAQAAAOgkwTwfdry7GRHziHikGCs5/8P/7V98lv/ps/9KKZb2m62rs6kyAAAAANAleszzMbMQyq/qPCKG+Z8++6/L/81yJtfb+wNlAAAAAKBLBPO83/HuJCL2FGIl5xExjGevb7auzm4iYhjC+WVtRMRMOA8AAABAlwjm+bnj3XFEHCjESl5EGcov/sWdcP5SeZYinAcAAACgU/SY520e9lqF03j2evyh/1gGzGq8vPOIGJY3OAAAAACgteyY543iYa+TEBiv4qOhfETE1tXZPIqd87fKtZS9KHbObyoFAAAAAG0mmOeuk9BXfhWfDOUXhPMPJpwHAAAAoPUE8xT0lV/Vt/cN5RfKcP5Q6Za2FxFTZQAAAACgrfSYJ+J4dyci5qGFzUM9jWevJw/9y9fb++OIeK6MSzvdujobKwMAAAAAbWPHPBHF7mOh/MOsFMpHRGxdnU0i4qlSLu3gent/0vsqAAAAANA6gvm+O949Cn3lH2rlUH6hDOe/VdKlHVxv758oAwAAAABtopVNnx3vDiLidwqxtNuIGMez19OqX7jcAa7X//Keljc3AAAAAKDx7Jjvt4kSLO02IobrCOUjIsqe6afKvLTnZa9+AAAAAGg8wXxfaWHzEItQfr7OQcpw/oVyL004DwAAAEAraGXTR1rYPESSUH7hent/MyJm4ebJg+Zp6+ps3vdCAAAAANBcdsz304kSLOU8IgapQvmIiK2rs5uIGJZjc38bETG73t4fKAUAAAAATSWY75vj3cOIeKIQ93YexU75i9QDC+cfTDgPAAAAQKNpZdMnx7ubEXERRXDJpy1C+Zs6D6IMmGfmbWm3EbFT3uAAAAAAgMawY75fjkK4e1+NCOUjIsp+6cMogmbub7FzflMpAAAAAGgSO+b7wgNfl3EaEYdNCOXvsnP+wc6jeCBso+YTAAAAgP6yY74/TpTgXk7j2etx00L5iJ92zo9M0dL2orihAQAAAACNIJjvg+PdUXjg630UoXyDbV2dzSLiqala2t719v5EGQAAAABoAsF8P5wowSc1PpRf2Lo6m4Rw/iEOhPMAAAAANIFgvuuOd8cR8UghPurrtoTyC2U4/7WpW5pwfk2ut/c3PWgXAAAA4H4E8913pAQf9TSevT5p44FvXZ2dRPGgWpZzcL29f6gM1SkD+VlEzITzAAAAAJ8mmO8yu+U/5Wk8ez1p8wlsXZ2NQzj/EN9db++PlWF119v7g4i4iOIhu3shnAcAAAD4pCzPc1XoquPdixDMf0jrQ/m7yvYsB6Z1+XVQtgXiYetuEMVO+Y13/tN5RAy3rs5uVAmgGbIs24mInYRDXuR5fqHyAKwiy7Jh4iHneZ7fqDyQgmC+q4rd8s8V4mduI2IYz17Pu3RSd1qJ7JnipX2+dXU2U4al19wg3h/KL5yWn+igA2oI9CIibvI8n6vhSgSj3F2DRxHxTcIhv83z/EjlAVhFlmWpQ6vP8zyfqTyQwi+UoLOOlOBnOhnKR0RsXZ3dXG/vD0M4/xDT6+394dbVWefWxbrcI5SPKHr5h3C+M8aRNtCLiHgVEUM1XMm34ecBAACARtJjvov0ln+fzobyC2XbkGEUbUS4v40o+qIPlOLTyt78v4uPh/ILB2WbJQAAAADuEMx305ESvKXzofzCnXD+1rQvZRHO7yjFh5Wh/LItsg6ut/cPVQ8AAADgDcF81xzvDsNu+bsuI2KnD6H8gnD+wTaiaGuzqRQ/98BQfuG78u8DAAAAEIL5LjpSgp/cRsQonr2+6duJl/3ShyGcX9ZeFDvnN5XijXLH+6oPk34unAcAAAAoCOa75Hh3JyKeKERE9Kh9zYfcCedZjnD+jrJH/HcVvdzz6+39kaoCAAAAfSeY75YjJYgIofxPynD+qSWxtL2ImPS9CGUof1Dxy048aBcAAADoO8F8VxzvbkbESCGE8u/aujqbhHD+Ib4sg+leWlMoH/HmQbsDSwwAAADoK8F8d4yiCLz67lAo/3PC+Qc76Fs4f729v7nGUH5BOA8AAAD0mmC+Ow6VIJ7Gs9cTZXi/Mpw/VYmlHVxv7x/14UTLvvqzWG8ov7ARRVubTUsMAAAA6JtfKEEHFA993et5Fb4Vyn/a1tXZ+Hp7PyJN8Nol31xv71+UNzc66U4on/K9ZPGg3eHW1dmNZQYAAHRZlmVHCYeb5Xk+U3VoLsF8Nxz2/PxP49nrI8vgfoTzD/b8ens/uhjO1xTKLwjnAQCAvvgm8XgzJYfm0sqmG0Y9PvdX8ez12BJYztbV2TgiXqnE0p5fb+936nq73t7fifpC+YW9iJhaXgAAAEBfCObb7nh3EBGPenr259HvmxKrGpU1ZDmTrjy0tDyPeTSjFdaTvj1oFwAAAOgvwXz7jXt63rcRMYpnr28sgYcp24YMQzi/rI0oWq8M2nwS5fHPyvNpigPhPAAAANAHgvn2G/X2vJ+9vjD9q7kTzl+qxlJaHc43NJRfOLje3j+xxAAAAIAuE8y3WX/b2Hwdz17PLIBqlOH8KIpPIXB/GxExLR+c2hrX2/vDaG4ov/DV9fb+2BIDAAAAukow327jHp7zaTx7fWLqq7V1dTaPYue8cH45j6LYOb/ZhoMtw+4fotmh/MJz4TwAAADQVYL5dhv17HzPI+LQtK+HcP7B9qIF4XwZcj9vWW2F8wAAAEAnCebb6nh3J/rVxuY2IsYe9rpeZTh/qBJL24uIaVMPrqWh/MLztj9oFwAAAOBdgvn2GvXsfA/j2eu5aV+/rauzSUQ8VYmlPbne3p807aCut/cPo72h/EJrH7QLAAAA8D6/UILWGvboXE/j2euJKU9n6+pscr29H9H+QDe1g+vt/di6Ohs34WDKGwUHHajrRhTh/LD8VAcAy5tE8fDvVC6UHIAKfJ54vLmSA6kI5tvry56c52VorVKLMpzfiYhvVGMpB9fb+zdbV2e1rtsOhfILi3B+Z+vq7MYyA1hOnucXISwHoGXyPJ+pAtBVWtm00fHusEdnO9JXvj5bV2dHEXGqEkv7qs6HlnYwlF9YhPOblhgAAADQZoL5dhr25Dy/1Ve+fmVbFuH88p6nDuevt/c3r7f3p9HNUH5hL4TzAAAAQMsJ5ttp2INzPI9nr49MdTOU4fwLlVhasnC+DKpn0Y82V3uRtk8yAAAAQKUE8+30pAfneGiaG2ccEefKsLTn19v7g3UOcCeU3+tRXffKlj0AAAAArSOYb5vj3UEPzvL7ePZ6ZrKbpXzg5jCE8w8xW1c439NQfuFAOA8AAAC0kWC+fYYdP7/biDgyzc0knH+wxUNLB1W+aPl6s+hnKL8gnAcAAABaRzDfPoOOn99hPHt9Y5qbqwznR1HcROH+FuH8ZhUvJpR/y8H19v6hMgAAAABtIZhvn0GHz+1VPHs9McXNt3V1dhHFznnh/HIqCefvhPIbSvqT71I9aBcAAABgVYL59uny7tgj09seW1dn8xDOP/QafnA4L5T/qOfCeQAAAKANBPNt0u0Hv77wwNf2KcP5kUosbS+KcH0p19v7oxDKf8rz6+39oTIAAAAATSaYb5dBh8/t0PS209bV2SwinqrE0vaWeWhpuRP8tyGUv49p1Q/aBQAAAKiSYL5ddjp6Xqfx7PWF6W2vrauzSQjnH+LgPuF8Gco/V657W/TyHygFAAAA0ESC+XYZdvS8jkxt+5Xh/NcqsbSPhvNC+QcTzgMAAACNJZhvl80OnpPd8h2ydXV2EhGnKrG0g+vt/cN3/+X19v5RCOVXsRERk4c+aBcAAABgXQTz7bLXwXOamNZu2bo6G4dw/iG+K3fHR0REuYv+G2VZ2V54nwEAAAAa5hdK0BLHuzsdPKtX8ez1zOR2z9bV2fh6ez8i4kA1lvK8rNtQ7SpzG9plAXdkWTYs/+cgPvxpxHlE3ETETZ7nc1WDRl7Lm+V1HFE8i2vnI3/8pryuIyIu8jy/UMHGz++w/J+D+PB79UX5FXmezzpYg7vnPrznX3urDl2sC0CXCObbY6eD5zQxrd1VhvOD6OYnPdZJ65rqnEfEcOvq7EYpoBrvBGHrtnJ4VoYao/KYBxHx6AGvERFxGUWoN4+ImaCj0jU1iPTtGud5nt+oUXtqVNZgWF7HOxHxZMXXiyh+TrhYXNdtWxcNWjMr163i9+qLcj5b816dZdnOnfW9WOOPHvhy37ynLndrc3Fn3V+4+UyF63hYw7C+n3esRn0kmG+PzY6dz208ez0xrZ03jOIHY+E8qQnlYT0GEfFDorG+jQd84iXLslEUAc8oimdNVOFR+fVlRHyTZdltREwjYprn+dSyWMlhpP+U2NcRcdKG4pQ3w36XeNjbPM83az7vnSh+jhyV/9xYwzB75deXUYaZWZadR/Gz67TlN+BOYsWbF0v4PN7ZpX3POR7F+t6rn0SD36sTre+P1ebusUREvIo3N6hmQjwe6DCK99OUnka7NnzOEl3vd/0qik+N0VB6zLfHoGPnMzGl3VeGosMoQlJIRSgPPZNl2U6WZSdZlt1ExG+jCHrX+YvPRjnGb7MsuynH3jETDzKpYcxxi+ozqmHMaU3X8WaWZeMsy2YR8fsoPkX4ZaQNMfYi4quI+OHOtT1wmVY2x3W+V1+U62uz5vU9r3F9f8iTct3/NiL+kGXZPMuyI2ufJU1rGHPUluKUNyNTX+8vtG5rPsE8dZkoQT/cCedvVYMEXoVQHnqjDHkmUYQcX0U9AcdGOfbvsyybCOiXU+5Kvkw87F5d4dwDjGoY86SG6/gkivYazyPdTu/7Xtu/K4PKsSt2pTmeRL3v1Y/K9ZV0LrMsG5bn/ody/DZ8kngvik+R/K68oXHkexufkuf5JNL/zv+l7+cfNbUym08w3x6DDp3LeTx7PTel/SGcJ5HTraszoTz0QLnzcBJFyNOkh2UfRBHQnzTtF8UyHMoTfg2XOLxJDSUZtWGdR/q2AJepek43JKy9r72IeL7Ydd30tdOgNbzTwPfqR+Vczte5I7x8z51F0f6tSd+nHlKvb6L43jato494eWMg2fevdR9f4vJ9U2FtZvcYb1rDGh215FpKfZy35c0SGk4w3x6bHTqXiensn62rs3kI51mf062rs7EyQPeVHwW+iGYHHV9FsStzaMbuZVLDmKMW1KWOY1z7XJQ31o6ieTfW7mMR6l6U70V8eJ4Po+hb3tQ53otiR/hRxec9uBPIN+XTH1X5Moo2Tz5Bwoec1DDmqOlFKW8Cpr75PLUc20EwTx1mStBPd8J5qJJQHnqgDPOmUfTAbfLO2oVHUQQYJ2bv48r+p6mfR9OGj7+PahhzsubreBTFjbVvWr5sH0XRt3ymxcfP5ninDKa/i3a8V39T7gTfXPG8N8v3+99F9wL5dy0+QTJzA5q7yk9cpW5P14bv5+MaxpxYke0gmG+PQUfO41Ibm34rw/mnKkFFvhfKQ/eVO43mkb6tRxW+KsOLTTP5USc1jDlq8JrfrGG9n6/rIXEtvLF2X0+i+HTMoUu4aN8SxXt124LpLyNi9tDWNnfO+6ueTfmTKG5AT32P445JDWOOGl6T1Md3WT7DhxYQzLdHV36AnZpKtq7OJiGcZ3VPt67ODpUBuq38uPwsih2qbfUkitBn04x+0LSGMUcNrkcdx3aypmt4EO29sXYfGxHxXd/DyfK9+odo7++te/GAcL7cJf9DtPt71Kq+jAjtnViY1DBmY9de+Z6S+v1h0rxK8CGCeVKbKQERwnlW9rRcQ0CHlUHP8+jGBoVF6LNpZn8uz/ObiDhNPGyTP/4+qmHM6Zqu4Vn0I7Rcadd1m915r267jfvOYfkpkFn0b5f8x2r32yzLJr7P9Zv2dD8zrmHMiZXYHoJ5UpspAQtlsPq9SrAkoTz0wyi6EfTcJZz/uGlN66xRampjc1reHKnyPI6iOzfWlr3GBz0653F06736ovz61DU6i+73kn+Igx5eA/zcSQ1jjhpai9THtba2dKyHYJ6UzuPZ6xtl4K6yFclp3+vAvdyGUB76ZK/D5zU1vT+X5/k0ivf6lEYNLMWwhjErXZNZlk2i/Q94fajFruthT873oEPnch4Rw4/dpLoTynf1e1QV+niDirdNaxhz1LQi1NTG5sTyaxfBPCnNlYD3KR/eKZznY24jYiiUBzriSRlc8nOp69LEj7+PEo93W94UqUS5trsU1j7ERhQPxRy6pFtDKF/9NTBThn7Snu4noxrGnFqB7SKYb4Pj3WFHzmRuMvmQMpx/pRK8xyKUnysF0CEHHpT3XpMaxmzaPKQ+nspqXrav6Xsof9fUruFW+GQoX5qFUP6+bqOeT//QHNMaxhw1rAapj6fytnSsn2CelOZKwCeMIv2DYmg2oTzQZZMsy3aU4Y08z+eR/meBUVPOv7xZk7on+6SiYx9Hf9vXfMi9HyZKbe4VypefBBHK389tWdO5UvRX39vTlT/fpX7PmFp57SOYJ6W5EvAxW1dnN1HsrBDOE+U6EMoDXbYR9ewQb7rUNWnSx99Hice7rCI8K4Pnrj2sudLr3EOfG+k2Ikb3COVH4ZMgy9RUKM/CJPF4ff5+XmlbOtIRzJOOB79yD3fC+UvV6DWhPNAXT7S0+ZlpDWM2ZQ5SH8fJqi9wp+82H7YXbsI1zSJAvrjH+jZ3y9V0rhSU6rh2Rg0593EPak0FBPOkonc491aG86NI/9E3mmERyt8oBdATJ0rwRhmUvUg87Kju866pjc20otdIfdxt9GWWZYfK0AjLBMgn1nflNaUn+tqerqY2NhMrrp0E80AjlTulhyGc7xuhPNBHj8r+3LwxTTxeEz7+Pko83otP7Rb+lDJofmK53tuR50rU7t4BcpZlw9DCptKa0kuTxOP18fv5ueuvvQTzbfDs9awDZzE3kSxLON87L0IoD/TXkRK8kef5JPr30LjU409X+ctlwGzdLsdzJeq1bIBsfVdfU/pnWsOYo5rPeZx4vIll1l6CeVK5UQIeogznxyrReadbV2cjoTzQY3bN/9w08Xijuk60hjY2txXUdxJafDzEE9d6LZYKkMvd8j4NUmFN6ae+taerqY3N1EprL8E80HhbV2fTiHiqEp11unV1NlYGADei3zFJPF6dH38fJR5vmuf5zUP/stByZScNaLXQJw8JkMfKVnlN6a9p4vHq/H4+TDzeym3pqNcvlABog62rs8n19n5ExHPV6BShPMAbT7Is2/ELViHP81mWZZcR8SjhsKOo5yPho8TjTVf8+3XU6ENuo2ibOY/3f0p3MyIG5VdTdvhvRMRhaJWSan0sFSCXgV4Testf3lnbF+XXxwzfWfM7sZ73T6E8S8nzfJJl2UmkfQ8ehe/ntIBgnlQulIBVleH8TkR8oxqd8O3W1dmRMgC8ZRQRJ8rwk0mk/b4/jMS/yGdZNoi0YcVlnufTFY53HGlvlrz3HKIIIyZLBq6Dco4PG3AOh1mWnazyyQU+6aEB8qhta7s0+8C6H0YR1A/Lr1Xeb4TyPNQ00t7wGkX67+ebEfFlwiFvy2fy0GKC+fZIvVuoahemkCpsXZ0dleF8E3ax8HBPt67OJsoArMFlFOHERfx8B+0gip2Ew2jW7tm7RiGYv2sSaYP5UQ3nOE483nTFv39U8/V99NAgogwT51G0khmW51JXS56+75p/FW/eqy/u/Pud8mtQfj30d+BVAuQ63gduy7V9UvUL53k+K2t9EvHTMy0WX8t+HzwUyvNAk0j7O/yXWZZtJr75OUpc06ll1X6C+fa4iHYH81CZrauzcdnWRjjfTkJ5oGqXUQQO00+0gZnd/T93wokmfT95UsMvko2V5/lFlmXnke5BahtZlo1W2VH+AKPEZT156F+scbd85aFlGVYOy/eBSdRzo65vu+ZfRbETfLLEmhtEcQNjtMQcrbqre5i4LucRMUrVxqx8f5uWu3tHUdwcus91/dTu3PfW8yiWuMGWZVme8PC+LY+vCXXqQ3u6UeKyuh47wMNfSWWoBFSp7Ev+ou91aCGhPFClyyiCgp08z0+WDTXyPJ/meT6OiL+NiO8bdF5DU/uWk8TjjVINVIaOKUOK8xXDv8Ma5v88ipB1LeugDCl3ynFS24h+PGT0VUR8nuf5cNlgN8/zefk+vRP3e59eKZQvP0mR8ibNYn1fRGJ5nt/keT7J83wnIp5G8T31Q4TyVCH1GhqlGqiGNjaX5Q1mWk4w3x43SgA/M456foliebcR8RuhPFChb8tAfrLqC5XhxGFE/Dqa8X1lYHrfMk083ijhWOPE5/bg66UMLPcSH+8itJyvc5DyPWAQEac1rO/Djl+/X5eB/KyCOTqMiM/jwwFyFf3PBwlrszjem7onqfxeOoj33/wQylOV1OvoyzIwT2HU8VqyJoL59pgrAbxt6+rsJopdhcL5ZruNiOHW1dlUKYAK3EbEb9bx0ewyzBlGsbuzTkPT/Na83ETawHSjbG+SwijSmqzwd8eJj3URyt8kXGvjSP+JzEflTY+uuY2IX1f9SYcy4B/Ez3/+r+qhpDsJa3TYpDZG79z8uC3/tVCeKtfYRaT/3X3UsXEWXJcdIZgHWk0433iLUH6uFEAFFsHLdF0DlMHEMOptlzYw1T8zTTzeaN0D1NDG5sVDQ8A7vahTX+s3kd440v9cOe7Y9VpVSP5e7/mEQ5XjDVLVqKmB952bH78RyrMGJ4nHGyUaZ5jwnM7raH/Fegjm22Pe8uPfMYWsSxnOj+LNzg6aQSgPVO1w3S0t7hhHfTd9N4K3lDdjUn6fHyVaYylNV6xHynU5qmsncTnuuIPrLaVRivfq8hMO30e1NwF2EtVo1uQJzPP8IvFDsOmP1Otq7e1syk/ZpfweeWIZdYdgvj1uWn78O6aQddq6OruI4i61cL4ZziNiIJQHKvR9yp17d8K5WnS0tcWqJgnHStHOZpTwfFbdnZvyWE/rfqBdGfKedGy9pfJtyvnL87zqG7apPsUyD+ih8uer1J9KHLX89d81tZK6QzDfHhctP/5NU8i6lSHwMITzdTuPYqf8hVIAFbmMiKPUg5Zhz7fK3xiTxOON1vXCNbSxma74979MdJy30ZCHoZbPsbjswnpL6Hwdz/8AOmeSeLxRy1//rtMmPZuC1Qnm2+LZ64uWn8GeSSSFMpwfqURtFqH8jVIAFTqq8ZeQk6jnhu/QtL+tvFGSsr3QaI2vPa5hHT9I4p3cJw0LHI5c80s57MA5AGtWQ3u6tbWzqaGNzdQK6hbBfLu0++GWx7s7ppAUtq7OZhHxVCWSE8oD61DrA/LKkHDSlGLQmXY2w4Tncbliq4+Ux9qoa61870kVHj3Ksmynxdfmq7pbELXMphLQc5PE441a9rrvc+vZD90jmG+Xm5Yf/44pJJWtq7NJCOdTOg2hPLAekwYcw4lpaIxp4vFGVb9gGb6m/DTppGk1+IDTPM8vGrjmJgnHGrb42py0+Njr0Oa5hipMEo83atnrNqFmJCCYb5dZy49/aApJqQznv1aJtTvdujobC+WBNZnUfQBlWJj6k4s7pv6Dc5HyoXGjlrzmWq6h8iZCql7404Yuu0nCsYYtvTRr/WRTS+15yDd9Vn6SK+VzPCpvZ1Newynb2EysnO4RzLfLRcuPf2AKSW3r6uwkit3crMfp1tXZWBmANbldsQVHlWaJx9sx/R80TTjWOtrZjBMe//mKu9AHqQ60qR/PTxweDZpYg3uYtfS463akBPTcSeLxRg1/vY85b9DPxFRIMN8uFy0//oEppA5lcCycr55QHli3eYOOZWY6miFx3++ICn/xrqGNzcmKf3+Q6DhfNXzZpbr+95pchAbUJ4WU7y1PsiybdKh2sKxp4vFGDX+9j5lYLt0kmG+TZ69nLT+DR3G8u2kiqYNwvnJfC+WBBGYNOpYL09Eo04RjjRr6WinqNOzhtV7r8bW0vcm8hcfclHM5yLJs1vIH/8KD1NCe7suqrrUsywaRrtVbhGC+swTz7XPe8uMfmkLqUgbJbb+GmuBp2SIIYN0umnIgPj7cOJOEY1XZzmac8LhP8zy/WfE1BomOtenX10XCsXbadjHmeT5r2zF/xE0NYz6JiN9nWTYpwz7ok2ni8UYVvc444TG/qOD7OQ0lmG+fecuPf2gKacAaFM4/3NPyoboAKVwoAe9TBoEpHxo3WvUFamhjM13xeDcj3UPtbhq+5OYJx9pxhfdmrt91EBG/y7LsIsuyaZZlR1mWDT0klo6bRtoWUuOKXmeUuEZ0lGC+feYtP/6hKaROW1dnNyGcf6jb6NZHlQGW1fQ+2H0zSTjWqCGvcV+3FTxMdZDweC+avNAS71Qctuw67NrP1PMGHMOjiPgyIr6JiB8i4ocsy/Ly66JsfTMrg/ujLMsOFwF+eUMNWqN8f50mHHJv1XY2idvY3JbP1qGjfqEErTNv+fHvxfHuTjx7fWEqqcvW1dnN9fb+MIpfAjf6XY2lbETE7Hp7f7h1dTZXDgBqNokiuEphI8uywYotjcaJa7OqQaqDLfsM0043HTufecOP71G8CQSfvO8PZFkW8faGmnk5TzeL/609Gw0zieITI6mMYrWHo48THuvU8ug2O+bbpv0PgI2wa54GuLNz/rbflVjaIpzfVAoA6lSGuSl3644f+hdraGMzqeA1Nq2yt6T6xMxAqetTvq9cduBUNqII7p9ExFdR3MT8Lood+L+7s/v+p5Y5Zp8ar7tZ4utuvOLfHyU81hMrpNvsmG+n80j7g33VRuGJ0jTA1tXZvNw5Pws755dxd+f8jXIAUKOTiHieaKxRRByu8HdTuaxoN+xOqgPOsmzWgrU2SDSOn0nrN40izO66xe77LyPim3Kn/avy/Kc+yUKHr7u9LMt2HrLGyxvtqdrYXPp0S/cJ5ttpFu0O5r+M493NePb6xlRSN+H8g+2FcB6A+k0jXTD/aIV2NsOENTmp6HV2Eh7zE0uZBplEP4L5D12LTyLiuyzLzstaTBI/Z4F+Okl83Y3iYd8vRwmPcWJZdJ9WNu0068A5jEwjTVH2Sz9UiaUtwvlNpQCgDmVYdJpwyPGyf6F8GOOXCY9xamW0W/lgQWpS3nzrQjubVe1F0f7mD1mWTVZ9YCZ84rq7iHa0pxsnPMaJldF9gvl2mnXgHEamkSbZujqbRMRTlVjaXviBAYB6TROONUr0dx7qRYXtJ+xir8+mEtTuRAnechARvy8DeuuTdZkkHGtv2ZtNiZ8X80o7qX4QzLdR0QLmvOVnUbSzgRU8fpltPn5Z3Y4i4fzDr+fr7f2JMgBQhzzPp5HuYe6PHrCbeZSwHFMrAioxiXTvK21yEBEXWZYdKgVruu5SGq35z7epFtREMN9esw6cw9g08lCPX2ab5XUwW0M4/70KL+1AOA9AjSYJxxrf9w8mbmNzG4J5qETZJutEJd5rI4oe9DPtbVjDdfci4ZDjNf/5VUytiH4QzLdXFy7SQ9PIQ9wJ5fei+MGw6nD+MNL2q+0K4TwAdZkkHGu0pj+7qqkHNEJ18jw/Cr3mP+ZJRMyzLBsqBRWaJBzr3u1sErexOfX9vD8E82317PUs2v/RukdxvDs0mSyjDODn8fY3xY2ImJSBfSW2rs7GIZx/iIPr7f1DZQAgpfJhjalaPS7TzmaUsAzTql5ID2n4yVgJPmojIn7IskydqETi9nQR9/8+PUp4TFMroT8E8+0268A5jE0j91WG8rOIePSe/7wXxc75zarGK8P5Vyq/tO+ut/dd2wCkNkk41vhTfyBxG5vLMsyoysBygog8z2cR8a1KfNJz4TwVmiYc677rdpjoeKr+fk7DCebbrQsX60Ec7+6YSj7lTii/8ZE/Vnk4H8Wd8bY/bLkOz4XzACQ2TTjWqKI/08Zzh14pW9q86Hsd7kE4T1VOEo71yXY2iW+0T01/vwjm260rF+zYVPIx9wzlF/aiwh1zW1dnN1HcHRfOL084D0AyeZ5fRLrw7D7tbEYJT//ECoC1GoffB+7j+RKtvuC9yvZ0KZ/vMFrxv1dpYgX0i2C+zZ69volutNk4jOPdTRPK+zx+mY3j/qH8wpePX2aTqo5BOL+S59fb+wNlACCRacKxxh/6D4l3152XNyWANSkfxDgMbS7vY+o5FVTgJOFY40/891Gi4zgvb0rQI4L59pt24Bw2wq553qMM5Z/HcqH8wsEawvlxtP+hy3WYCecBSCHP80mk+149+sh/GyY87YmZh/XL8/wmz/NhRJyqxkc9Cp/iYXXThGN9sJ1N4hvtE9PeP4L59pt25DwOTSV33QnlV3Hw+GV2UtUxbV2dzaP4RVs4v5yNEM6D9Q/pTBON87F2NqOE5ztZw2vOLSN4vzzPxxHxNPxO8DEHWZYNlYEVrrOLSPsJldGS/34dJma+fwTzbffs9UV040E0j+J4d2xCiagslF/4qny9SgjnH0w4z7I2nQ/wQJOEY40/8O9HicZ/UbbYqNQ6XhO6pPx0ziA8FPZjTpSAFU0SjjX+wL8fJRr/he+9/SSY74ZpR87jyFRStp95XvHLPl9DOD8OlrUREdPr7f1NpeAe9pQAeIg8z2eR7qFxo3f/RZZlo3hYG76HmJpxqEee5xd5no8i4vPQe/599rKsut/B6KVppNsQ97N2Nonb2ExNdz8J5ruhKxfwozjePTSd/VWG8gdrevmqw/lpFB9hZdnrvNg5v6kUAKzRJNE472tnM0o09m25axeoUZ7ns7L3/OdhB/27xkrACtfWTaTNu0bv/P9honF9P+8xwXwXPHt9E915AM1RHO9umtT+WXMov3Dy+OUHe8EubevqbBLC+YfYC+E891DuUumKgRmFpCYJxxq/8/9HicadmmZojjKgH0XEryLi64g4V5V48pFnccB9TBOONX7n/486eI40jGC+OyYdOY+N8CDY3kkUyi/W12wN4fy3ZnFpwvl2ualp3EGDarCqjRrGvGlaESCV8qFxqUKx4eJ/JG5jc7Lm10/VDgg6pWxxc5Ln+SDehPQvor/PqBpbFaxwPU0j3fejd9vZjBKNe2Km+0sw3xXPXs+iOz88H8bx7o5J7b7HL7PNxy+zeaQJ5RfWEc4fRXc+tZLSXnjyfFvMaxp30KAaPFiWZcOezRs0xUmice7+Ij9KNOZlnufrvsYvUk1UnueZr7e+Zi7fbrgT0o/yPN+MIqj/TRQbe15EP3bVj3pwjqzXNPV6TXijPcX3cxpMMN8tJx05j43wINjOe/wy24yIWdTzgMdFOL9Z1QtuXZ2NQzj/EF9eb+9PlIEP2HEewAqmCccavfPPdZuYXmifMqif5nl+VIb1g8UNmSh61H8eRavMb+NNeP8q2h3gP9LOhhWdJBxrXP5zlGi8ientt18oQadMIuK7jpzLQRzvTspPAtAxNYfyC4twfvjjF/lNFS+4dXU2vt7eL9YvS13v19v7i5sbNNO8pnGHHalfXecxb1ANILk8z2+yLDuNNN+Xx1mWXUS6NjaTBGPMI+KJlQRp3PeTEuUndHbK/zss/7kZbz5pOIh6Wuh9zDD8XMLDr42LLMvOI01+sPgU3CjR6U3McL/ZMd8l3XoIbIRd853UkFB+YS8q3jkfxTMSPOhpeQd2zjdXnldz8+oh12hHHgA77Nm8QZNME42zF+mek3Re9tBft5tUk/ROT1/gI8pd97Py66j8OszzfFh+bZY78H8dxe77JvS3H5g5VjRJPFaKm1uvEn0/p8EE891z0qFzGeg13y1lX/eLaEYov7AXxY2CSmxdnd1EEcIJ55d3cL29f6gMjfWqpnFHbS5a+dHtRz2aL2iU8qFxqQKpVLvLTxKNM084VTtWK1Qrz/N5nueTPM9H5TX2NOp7Lt3AjLCiScKxnnTwnGgowXzXPHs9j278Mn4eEcN49vrCpHZDGcrPonkfq4yI2Hv8MptU9WLC+ZV8d729P1aGRrqoadxRy+tW13q+aFANoG6Tjp3PNNE4NwnPaWCZwvrkeX6T5/mkvNbq+JR9kzZm0dI1HMWnP7pkamYRzHfTScuPfxHKz01lNzx+mQ2juaH8wsEawvlR1P+x0TZ6LpxvpHlN437Z8hYHo57NFzTRpEPncpqqTdV9+11XZGCZQpLr+ibP83HUEM5rWUUFph06l1NtJ4kQzHfTs9fTqO8jaqtahPI3JrIbHr/MxhHxQzQ7lF+oOpy/iGLnvHB+ecL55pnXOHYr10KWZeOop41N3fMFjZLn+Ty68ym2aeLxUv0MM7BSIZ0ynE/9vrij8qy4bifRnd+tp2aUCMF8lx218JiF8h1ThtzPW3bYB+XNhEpsXZ3NQzj/UCdK0ByJd06+67ClD4E96ul8QRNNOnAOt2XP/JTmicbZs5sWkjtUAlpo2oFzuKzh+zkNJZjvqmevJ9GuXfMvQijfGY9fZpuPX2aziDho6Sk8X0M4P7IylnIbxQ0NmqWuZ5hsRMt+eax5t7wHv8LPTTtwDpMaxpwlHGtkmUI65U38lJnBjqpTgZMOnMPUNLIgmO+2o5Yc52k8ez0SynfDnYe8Pmn5qVQdzs8i4qkVci/nETEob2jQLNMax/4my7JBG4pU7u4/6ek8QSPleX4R7X9o3KSGMecJxxpbqdDpa3xHuVlV2Z6ura2bFyZmkgXBfJe1Y9f8aTx7PTZZ3fD4ZTaKIpTf68gpPS8fXFuJrauzSQjnP+U8IoZlf36aZ1bz+JOW1GkS9T5Xo+55gqaatvjYL8swIrWUY+615QYsdMi89xWgjSYtPvbzmr6f01CC+e47avCxCeU75PHL7CQifhvteMjrMqblpwAqIZz/qEUof6MUzdSAHSp7WZadNLlGWZYdRsSXNR7CpR/24f1a/tC4k5pqdhFp3/cPrVQAPmHi2OkKwXzXFbvmzxt4ZF8L5bvhTj/5rzp6ihsRMVtDOH9q9bxFKN8e05rH/6rs39445XF91/P5gaZr6zVS53HPEo51kGXZ0DKlLTy0eCk3SkAVypvGbX2m0sQMcpdgvh8OG3Y8T+PZ6xPT0n5lm5eLaH8/+U9ZhPM7Vb3g1tXZOITzC6chlG+TkwYcw/OmhfNZlo0aUpsmHAM02aSFx/yiDCHqMk083kmbJifLsnGWZTfa8PRPlmWTiJi3fO53Eo41t2qo0KSFx/wiz/MbU8ddgvk+ePZ6Fs25m/i03MVPyz1+mR1FxA/RvdY1H7IRRVubzapeUDgfERGnW1dnY6F8ezRoh8rzsm1M7cqbBE1o5fWq5vAOGi/P81m076Fx05rHnyUeby/LsqM2TEz5/v88yk0cwvn+KEP5gztzP2rpqQzNZqd1eX6njpkuEMz3x7gBx7DWUL5sqbJjqtfr8cts5/HLbB4R3/Tw9Pei2Dm/WdULluF8E9tNpXBanj/tM2nIcXyXZdkky6q7JpeRZdlm2fP+uXmBVmnTtXIbNf8iX+7ue5F42G+aHnSWN4fvvv8L53viTih/d+5/25YbSnfOYxQRjxIOeWP1JLfT1RMrvze1aZPbbfmsG3iLYL4vnr2+iIhvaxr9NiI+X3coH8Vunt+XO7lZT50Po/gI4l6Py1B5OB/FToa+hfNC+RYrf6hsyo7Tgyg+Rj5KOWjZA3kezXm+xqUf9uHe2nStTBvysfdpHfPUxJC7vCk7ifc/U6Ttu6f59PxP4u1Q/q5vsiybtaHvfLmp4STlmB5OX4tHHX8OwtSx0naC+X45ifRBym1EDMt2OmtxJ5RfhMXfPH6Zzat8WGfflZ9GmEbxC0hfWtd8zF5U+Et92cZlGP0J558K5TvhqEHH8iiKnWqzdT80MMuyYZZlsyhaeT1qUA2aNB/QaGXLp7Z8z532+DgWIfewKZNR3iiYxYeD2cVx/7apDypnpfmffGLuI4pnb82b0m7vI04i7c8xbWshtk6pW0I2fS0+WJ7n0xatrRNLn/cRzPfJs9c3kfZNeRHKz9c1QBm+z+LnO7j3IuJ3j19mRxXvbO6dxy+zcRQPeP1SNd7y5eOX2aSqF7sTzt92vG5Pt67OJh0/x15o2K75hScR8UOWZfPyYXybVbxouTtynGXZPIpAvmkPvL4Mu3BgWSctOMbLMnSoXU3tbCKKkPuHJoSc5THM4v6fHG3cg8pZaf4n8elQ/u66/S7LsosmroElz6Uqc6uoNl91vMXWtAXHeOkTI3yIYL5vnr2eRpo7tHWG8nd9ExHzxy+zoclfur47j19ms3jzQCt+7kA4vxShfPccNfS49qJ47/pDGdIfZVk2uu9HebMs2yn//FEZxv+hfL2mtvE6akirC2iTqWNc2kmNY39XV4uQ8pNS83jYJ0eF8x2wQpD9qFwDF1VuGFjhPAblWj6oYfiZlfSTeQ1jTupef+s8N8dImwnm+2kc6w3+ziNikCiUv88Px48i4ofHL7Oph8Peu75HUfzA0LRdoU10UOVzDbauzubRzXBeKN9BDd01/669KG7S/jYifp9lWV7+gjx7z9dFlmV5RPy+/PPfRPOfqaG3PDxASx4ad9Kwms2i3vf8RYuQoxQB0zuty1b5XiCcb7GKdpc/iuIG/0X50PpR4nMYlOfxu6jv55qZ1fSTixrG3CvX37BrxSx3oje9Pd3EsudDBPN9VDwI9mhNr34exU75i3Ud/pKh/F1fRrF7XnubD9d29PhldhFFGGWX/P19U7b8qUTHwvnbiPi1UL7Txi085kdRBDzvfjWpZ3yX6w9NMW3wsZ2XvfCb5qjm8Tei+Dn1D+sIOMsA8yTLsouotnWZcL6F1tDyZaN8vd9mWXaTZdk0y7LDdbQZKT/9d1jukP9d1LNLfkEbj7fVVYtFa7DFDc5hhx4MO2nwsb1q6PdzGiLL81wV+up4dxbV7ohehPI36zrkMvw8idVD48uIOPrxC7sMy7oOyrraIb+ap1Wuqevt/XEUu2va6jYihuWNBjosy7JpeA5FHV7keT5KPNfDKMKqVD4vd+k2Za3PIt33yld5ng/N3drn9CaauRnh6zzPTxpas4to1o3M2yg27cyiCLzm92nvVYahm1FshhiU/1z3Wnia4lNObX6vatA6n0T6MPtVFLup735FRFx8KNi7s453yq9B+dWka/T7PM8PV5iLoyhuyCWR53mWYH21MYhr7LVe3mD4fUPr9tSnW/mYXyhBr42j+OG1ih9AU4XyVYWUjyLiedmCpLcBfdna5yjq3UHRJc8fv8xufvyimge1bV2dTa639yPaGc4L5ftlHMUvjz5pk/YaGysDrGwSEV819Lia6iia9bPJRhQ3h3+6QZxlWUTxPjl/588Oot7vVc+zLAshTbPVFMpHvPkE3/uOqc0ltd5/7lXYFFeZPM8vsix7Ec3cKDQ1Q3yMVjZ9VrSbGVfwSqfRrlD+rkVAf1FlK5KmKx/sOonirrJQvlqT8hMIlShbwDxtWQ0uQyjfK+XOxLFKJDX2wFeoxKSBx/Siydd3S54vElEE8O+2LGvCDWRtbRqsxlC+q861sXmvqRL0oqanfl7nUwTzfffs9TRWe/DVaTx7PW5pKH/XWwF9V3vQC+ST2IiI2RrC+e9bcv7nETEQyvdPnufTFq3Ttvu+rDewooY+NK4N1/eh1bMS4XwDCeXX4kQJ3muqBNUqbxo37Rlt5plPEswTUfxg/ZBfSIpQfo0ev8xOIu1HZR+V4108fpmdlK1eWq98qOssBPKpbETF34S3rs4OY7WbaCmcR7FT/sYS6Keyf2jTAq6uOV+lTyvwXpMGHcttG9qclDcHX1k6K3leBsE0gFB+LS61bXq/8pkBfmau3rRh679Jx0NDCeaJcrf7OJa7u5gilJ9EfT0/N8qxf//4ZTZr4y76cnf80eOX2UVE/Db0sEvpNiJGVb/o1tXZOJobzgvlWRhG83ardMVtWV+gWlPH8iDj8H6/qgPhfP2E8mtzqAQfdaIElZs06FimpoP7EMxTePZ6HvfvD/w0USjflB+OnsSbXfSTxy+zUVOn8fHLbLO8iTCLYnf8N1F8CoB0biNi+OMX6+mlWIbzLxp2zq9CKE+p7KM4DGFN1W4jYqhPJVSv3LnYlO+tk5bV7cgKWplwvkZC+bV5ZbfwxzW09UrbazqL5jwDZWJGuA/BPG8U/ea//cSfehrPXk/WeRgNC+Xv2iiP67ePX2b545fZtAzBd+o8qMcvs8Hjl9lhGcb/IYqbCHbH1+M8IgbrCuXvGEdzPvp4unV1JpTnLWXP5pFKVGrk4WmwVtMGHMNlGSq0Rp7nJ9G8DQNtNMiybj7jqsmE8mtzG/ff9Nd3J0pQuUkDjsFDj7m3XygBb3n2+iiOd3fi/T+grDWUL1vFTKM9ofKX5Vc8fpldRsQsIuYRMf/xi/X9UvX4ZTaMiEEUO1KHUdwwoH7nUeyUv1n3QFtXZzfX2/vDcs3t1XjOp+UOfviZPM9nWZY9jbTPCemqp20L66Bt8jyfZFl2EvX+XDVpafnGUf/PJG12Hj4RlVyWZUchlF+Xw/ITNXzaSRQtf/xOX51JFJ0D6j4GuBfBPO9zGEXwe/eH6xSh/Cza+wP9oyh+sDsozyei+CH7Ioqw/qb8Z0TExY9ffPgHlXIH/k75fwcRsRlFAL/Z4vp0XbJQfqEB4bxQnk8qg64I4fwqnnpwGiQzjXqDulZe63me32RZNo7iZxLh0nKE8vU5ieLTfX6/qtapn1vur3z/PAw/K1dZ04ssy85rvrZdA9ybYJ6fe/b6Jo53h1H8cL0TEcOyB/1adCCU/5C98uvL95yzddYdyUP5hTKcH0f6X4S/3bo6OzL13EcZzs9DYLOsRU/5uVJAMpOoL5g/b/MO0zzP51mWDcN7/VJzHkL5OtfszZ01K5yvaE3neT5WhqXX4qS8uakdbXVOor6bHS+8r7MMPeZ5v2evb6LYQSCUhw87/fGLfFBHKL+wdXU2j7QP2nwqlGdZZbiccp22nVAealDzQ+NOOlC/eXivv68XIZRvwpq9Kdes5ySs7rysJQ8zDu+dVZr2dGxaSDDPhz17fbHmUH4QRXsXoTxtdPrjF83YEZIwnH+6dXU2MfU8RBnY7ERzHlzcVOcRsSOUh9pMahp32oXiCefv5TTP85FQvjFr9ibP81FEfK8aD+bTH6uvw4vwwNxKr+uIOK1h6FutnFiWYJ5alKH8LIre7NA2jQnlF8pwfp3HJJRnZeUvv4Pwy++HfJ/n+cAvtlCrSQ1jdupj78L5j3qq1Udj1+1hRDy1bpfm0x/VrcFpuQapxrQnY9JygnmSuxPK6z9JGzUulF/YujqbRvU/zN1GxG+E8lSp/OX38/DL793r7POyLkCNyl2LqT/ZM+lgHecRMQifklq4jIhf20nZ+HU7sW6X8r1Pf6xlDdrAUk0tp5H+d40TlWdZgnmSEsrTck+bGsovlAF6VeH8bUQMy8AfKlX2ct6Jej5m2iSnUbSumVkV0BgnCce6LcODzsnz/MKnpCKi2FE80KKsdev2W9X4oNuI+I0NBWtbg4cR8bVKVGKWcKxL7/M8hGCeZB6/zMYR8bsQytNOT3/8oh27nMpwftUf5hah/NzUsy5la5txFLvn+7Y77TyKXfJjO82gcaYJx5p0vZhlyPSbqO/BunVZhJd2FLdz3R5FxK8i4pVqvOVFFBsKpkqx1vV3ElorrSTLss1I+0DiiarzEIJ5kihD+ecqQUu1JpRf2Lo6O4mH70QWypNUnuezcnfa0+h+cHMZRY/hgV3y0EyJHxo36UlNp1G0COnL7vnFp6GmrqhWr9uLPM+H0c8bS++6jGJDgRtN6dbfJIpgWWulhxlF2k2hEyXnIQTzrJ1QnpZrXSi/sHV1No7lg4XziBgI5anDnd6u30b3fgG+LM9roMcwtMI0wRi9+th7+Smpw+j2LuRX4dNQXVy70zzPd6IfGwjetdhQoO1ePWtvHkU4r7XS8kYJx3pVPqMGliaYZ62E8rTYbUT8uq2h/MKS4fx5FDvlL0w/dSmDm6MO/QJ89xfaI0ENtEOih8ad9LS2i13In0d3njOyCOSHwstOr93JnZ9Put7i5u7PLxOzX+u6u7nTWqnvz2a6l7KNzZcJh3SN8GCCedbm8ctsEkJ52uk2IoY/ftGZXWyH8emPQC5C+RvTT1Pc+QV4Ed60pc/mbXm8n/uFFlpt3dfutM/FLduYjaMIm76PdvZSPo2IXwvke7d2J+XNpV+3eO1+bE37+aWZ6+7izntmm34ursMo8XhTJeehBPOsRRnKH6gELdS1UD7KsH0YHw7nhfI02p3wZieKXWovonm/jNyWx/U0ir7CYyENtN5kja/tY++lMmw6zPN8M4pe3k0PnBbv9X9bvtfPzWJv1+78nbX7fbTvk36371nTM7Pb6HV38Z6fi3nbKOFYpz4Ryyp+oQRUTShPi11GxKhLofzC1tXZzfX2/jAiZhGxd+c/nUbEoVCeNih/6J2UX5Fl2TCKm07DiHhSwyG9ioh5REz9Egvdk+f5PMuy83j7+2ZVJir83ppPo9x52ID3+IXLKH5+mkXxfn9jpvjI2j3MsmznztodxHreQ1bxarGm/fzS6jV3E+//uXin/HrSv6rU0sZmajWy0prN81wVqIxQnhY7j2Kn/E2XT/J6e38niiBxIyJOyx700AnlLySDKH4ZGZRfGxW89G153cwj4iIi5n39Rbb8ZWeQcMh5k0KwLMsGEbGZaLibKnfi9n3uVqjbThTvKepT/1wM4+33+J2IeFTxMK8i4iaK9/tZW+epze9VHV+/O+XXsPzX6w5Oz8v1PIs3P7+0bq7W+D78Xl37Ga/C94NWXOtZlvQ5h5dl2014+JoVzFOVxy+zzfj5blxog16E8gvX2/uDiBhvXZ0dmnr64J1fSO7+7/e5iSKQiRA2ADTeO6HdZtzvBtRF+RXhvZ761/D71u1wiZe4iTc/u3QuWIYlr6dZpPu0wPd5nh+qOiutWcE8VRLO00KnEXHYl1AeAAAAuqa8Ufv7hEP+yvNiWJWHv1KpMtwcxocfMglNcvrjF/lYKA8AAACtNko41rlQnioI5qmccJ6WePrjF/lYGQAAAKD1xgnHmig3VdDKhrXyMFga6DYixj9+kU+VAgAAANqthjY2f+sh7lTBjnnWqtyRfKoSNMTiIa9TpQAAAIBOGCUc64VQnqoI5lm7Mpz/WiWo2YsoQvm5UgAAAEBnHCYca6LcVEUrG5J5/DIbRfEGtqEaJPbtj1/kR8oAAAAA3ZFl2TAifkg03G2e55uqTlXsmCeZsn3IMCIuVYNEbiPiN0J5AAAA6KSjhGNNlZsq2TFPco9fZptRvJk9UQ3W6DwiRj9+kV8oBQAAAHRLlmWjiPhtwiF/nefa41LhGhbMU5fHL7OjiPhGJVgDrWsAAACgo7Is24yIi0jXLvkyz/MdladKWtlQmzI4/TyKdiNQhcuI+FwoDwAAAN1UhvKzSPsMwxOVp2qCeWr14xf5LCJ2IuKFarCiFxExKNcUAAAA0DFZlg2iCOX3Eg89VX0qX89a2dAUj19mh1E8tGOj35VgSbcRMS4fLgwAAAB0TNlPfhQRBzUM/yrP86FZoPJ1LZinSR6/zHYiYhIeDMv9vIgilL9RCgAAAGiHLMuO7vHHdsqvujOip3meT8walV8HgnmayO55PuEyIg7tkgcAAID2ybKsLYHkbUTs5LkNgVRPj3ka6ccv8pOIGITe8/zc91H0kp8qBQAAALBGU6E862LHPI33+GU2jKK9zSPV6LVXUeySnysFAAAAtFeLdsx/nuf5zIyxlutAME9bPH6ZHUXEYWhv0ze3UQTyE6UAAACA9mtJMH+Z5/mO2WJdtLKhNX78Ij+K4qEfp6rRC7cR8W1E7AjlAQAAgMROlIB1smOeVnr8MtuJor1N3U/mZj1OI+Loxy/yC6UAAACAbmnBjnkPfWX914FgnjYr+88fhYC+KwTyAAAA0HEtCOZP8zwfmynWeh0I5ukCAX3rCeQBAACgJ1oQzP8qz2UUrPk6EMzTJWVAP46IA9VoBYE8AAAA9EzDg3m75UlzHQjm6aKyB/1RRIwiYkNFGuU2IqYhkAcAAIBeanAwr7c86a4DwTxd9vhlthnFDvrDiHikIrW6jOKJ5pMfv/ANDgAAAPqqwcH8t3meH5khklwHgnn6omxzcxgRX6pGUi+iCOOnSgEAAAA0NJg/z/N8YHZIdh0I5umbO7voxxGxpyJrcRkRkygC+QvlAAAAABYaGsz/Os/zudkh2XUgmKfPHr/MBlEE9KPQ6mZVi97xJz9+4RsZAAAA8H4NDOa/zvP8xMyQ9DoQzENBSP8gizB+qlUNAAAAcB8NC+ZP8zwfmxWSXweCefi5xy+znSgC+mHoSf+u84iYRdGmZq4cAAAAwDIaFMwL5anvOhDMw6c9fpmNogjph9G/vvSLXfGziJjpGQ8AAACsoiHBvFCeeq8DwTwsp3x47CDeBPWDiNjo0CmeR8Q8BPEAAADAGjQgmBfKU/91IJiH1ZWtbwbxJrDfiXb0qV+E8BdRBPHzH7/Ib8woAAAAsC41BvO3EXGY5/nELFD7dSCYh/V5/DIbRsRmFIH9Tvm1GWnb4bwq/zm7888LO+EBAACAOtQUzL+KiHGey0NoyHUgmIf6PH6ZDaII6iPeBPgPNY+Im/J/C94BAACARkoczF9GsUt+qvI06joQzAMAAAAAqSQK5l9FxETbGprqF0oAAAAAAHTAeURMImKqZQ1NJ5gHAAAAANrmMiIuoniW3jwiZnme3ygLbSGYBwAAAABS+nyFvzsXwNMFeswDAAAAAEBC/0QJAAAAAAAgHcE8AAAAAAAkJJgHAAAAAICEBPMAAAAAAJCQYB4AAAAAABISzAMAAAAAQEKCeQAAAAAASEgwDwAAAAAACQnmAQAAAAAgIcE8AAAAAAAkJJgHAAAAAICEBPMAAAAAAJCQYB4AAAAAABISzAMAAAAAQEKCeQAAAAAASEgwDwAAAAAACQnmAQAAAAAgIcE8AAAAAAAkJJgHAAAAAICEBPMAAAAAAJCQYB4AAAAAABISzAMAAAAAQEKCeQAAAAAASEgwDwAAAAAACQnmAQAAAAAgIcE8AAAAAAAkJJgHAAAAAICEBPMAAAAAAJCQYB4AAAAAABISzAMAAAAAQEKCeQAAAAAASEgwDwAAAAAACQnmAQAAAAAgIcE8AAAAAAAkJJgHAAAAAICEBPMAAAAAAJCQYB4AAAAAABISzAMAAAAAQEKCeQAAAAAASEgwDwAAAAAACQnmAQAAAAAgIcE8AAAAAAAkJJgHAAAAAICEBPMAAAAAAJCQYB4AAAAAABISzAMAAAAAQEKCeQAAAAAASEgwDwAAAAAACQnmAQAAAAAgIcE8AAAAAAAkJJgHAAAAAICEBPMAAAAAAJCQYB4AAAAAABISzAMAAAAAQEKCeQAAAAAASEgwDwAAAAAACQnmAQAAAAAgIcE8AAAAAAAkJJgHAAAAAICEBPMAAAAAAJCQYB4AAAAAABISzAMAAAAAQEKCeQAAAAAASEgwDwAAAAAACQnmAQAAAAAgIcE8AAAAAAAkJJgHAAAAAICEBPMAAAAAAJCQYB4AAAAAABISzAMAAAAAQEKCeQAAAAAASEgwDwAAAAAACQnmAQAAAAAgIcE8AAAAAAAkJJgHAAAAAICEBPMAAAAAAJCQYB4AAAAAABISzAMAAAAAQEKCeQAAAAAASEgwDwAAAAAACQnmAQAAAAAgIcE8AAAAAAAkJJgHAAAAAICEBPMAAAAAAJCQYB4AAAAAABISzAMAAAAAQEKCeQAAAAAASEgwDwAAAAAACQnmAQAAAAAgIcE8AAAAAAAkJJgHAAAAAICEBPMAAAAAAJCQYB4AAAAAABISzAMAAAAAQEKCeQAAAAAASEgwDwAAAAAACQnmAQAAAAAgIcE8AAAAAAAkJJgHAAAAAICEBPMAAAAAAJCQYB4AAAAAABISzAMAAAAAQEKCeQAAAAAASEgwDwAAAAAACf3/AXiLgVsQPkcEAAAAEnRFWHRFWElGOk9yaWVudGF0aW9uADGEWOzvAAAAAElFTkSuQmCC;" vertex="1" parent="WIyWlLk6GJQsqaUBKTNV-1">
          <mxGeometry x="355" y="-272" width="520" height="229" as="geometry" />
        </mxCell>
      </root>
    </mxGraphModel>
  </diagram>
</mxfile>
